<?xml version="1.0" standalone="no"?>
<svg width="475" height="400" xmlns="http://www.w3.org/2000/svg">
<polygon points="100 100 125.0 100.0 137.5 78.34936490538902 159.15063509461098 90.84936490538902 180.80127018922195 78.34936490538902 202.45190528383293 65.84936490538902 202.45190528383293 40.849364905389024 177.45190528383293 40.84936490538902 164.95190528383293 19.19872981077805 143.30127018922195 31.698729810778055 121.65063509461099 19.198729810778044 109.15063509461098 40.849364905389 121.65063509461096 62.49999999999998 100.0 74.99999999999999 100.0 99.99999999999999" stroke="none" fill="hsl(0, 100%, 85%)"/>
<path d="M171.20190528383293,30.024047358083536C157.6935392597012 37.82310611842799,124.67689388157201 38.95709583490977,132.47595264191648 25.448729810778048" stroke="hsl(0, 100%, 85%)" stroke-width="5.0" fill="none"/>
<path d="M171.20190528383293,30.024047358083536C157.6935392597012 37.82310611842799,124.67689388157201 38.95709583490977,132.47595264191648 25.448729810778048" stroke="white" stroke-width="2.5" fill="none"/>
<path d="M169.97595264191648,84.59936490538902C157.2284038579345 62.519962739569394,137.4800372604306 38.92713366871254,115.40063509461098 51.67468245269449" stroke="hsl(0, 100%, 85%)" stroke-width="5.0" fill="none"/>
<path d="M169.97595264191648,84.59936490538902C157.2284038579345 62.519962739569394,137.4800372604306 38.92713366871254,115.40063509461098 51.67468245269449" stroke="white" stroke-width="2.5" fill="none"/>
<path d="M112.5,100.0C112.5 92.92893218813452,107.07106781186548 87.5,100.0 87.5" stroke="hsl(0, 100%, 85%)" stroke-width="5.0" fill="none"/>
<path d="M112.5,100.0C112.5 92.92893218813452,107.07106781186548 87.5,100.0 87.5" stroke="white" stroke-width="2.5" fill="none"/>
<path d="M148.32531754730547,84.59936490538902C160.21220505902053 64.01067179124257,166.0134752482425 46.0374229249245,154.12658773652743 25.448729810778055" stroke="hsl(0, 100%, 85%)" stroke-width="5.0" fill="none"/>
<path d="M148.32531754730547,84.59936490538902C160.21220505902053 64.01067179124257,166.0134752482425 46.0374229249245,154.12658773652743 25.448729810778055" stroke="white" stroke-width="2.5" fill="none"/>
<path d="M202.45190528383293,53.349364905389024C166.4030626832954 53.34936490538903,146.61984856370316 48.048468658352306,115.40063509461098 30.02404735808352" stroke="hsl(0, 100%, 85%)" stroke-width="5.0" fill="none"/>
<path d="M202.45190528383293,53.349364905389024C166.4030626832954 53.34936490538903,146.61984856370316 48.048468658352306,115.40063509461098 30.02404735808352" stroke="white" stroke-width="2.5" fill="none"/>
<path d="M191.62658773652743,72.09936490538902C185.36761957454624 61.25851404588157,189.95190528383293 53.367301229351455,189.95190528383293 40.849364905389024" stroke="hsl(0, 100%, 85%)" stroke-width="5.0" fill="none"/>
<path d="M191.62658773652743,72.09936490538902C185.36761957454624 61.25851404588157,189.95190528383293 53.367301229351455,189.95190528383293 40.849364905389024" stroke="white" stroke-width="2.5" fill="none"/>
<path d="M131.25,89.17468245269451C121.24398996650424 83.39770986634164,116.60229013365836 78.75601003349574,110.82531754730547 68.74999999999999" stroke="hsl(0, 100%, 85%)" stroke-width="5.0" fill="none"/>
<path d="M131.25,89.17468245269451C121.24398996650424 83.39770986634164,116.60229013365836 78.75601003349574,110.82531754730547 68.74999999999999" stroke="white" stroke-width="2.5" fill="none"/>
<polygon points="100 100 125.0 100.0 137.5 78.34936490538902 159.15063509461098 90.84936490538902 180.80127018922195 78.34936490538902 202.45190528383293 65.84936490538902 202.45190528383293 40.849364905389024 177.45190528383293 40.84936490538902 164.95190528383293 19.19872981077805 143.30127018922195 31.698729810778055 121.65063509461099 19.198729810778044 109.15063509461098 40.849364905389 121.65063509461096 62.49999999999998 100.0 74.99999999999999 100.0 99.99999999999999" stroke="black" fill="none"/>
<polygon points="137.5 78.34936490538902 125.0 100.0 100.0 100.0 100.0 125.0 121.65063509461096 137.5 109.15063509461096 159.15063509461098 121.65063509461096 180.80127018922195 143.30127018922192 168.30127018922195 143.30127018922192 143.30127018922195 168.30127018922192 143.30127018922195 180.80127018922192 121.65063509461098 193.30127018922192 100.0 180.80127018922192 78.34936490538904 159.15063509461095 90.84936490538904 137.5 78.34936490538902" stroke="none" fill="hsl(30, 100%, 85%)"/>
<path d="M148.32531754730547,84.59936490538902C140.52625878696102 98.10773092952076,112.5 115.5981175206889,112.5 100.0" stroke="hsl(30, 100%, 85%)" stroke-width="5.0" fill="none"/>
<path d="M148.32531754730547,84.59936490538902C140.52625878696102 98.10773092952076,112.5 115.5981175206889,112.5 100.0" stroke="white" stroke-width="2.5" fill="none"/>
<path d="M174.55127018922192,132.47595264191648C152.4718680234023 119.72840385793451,123.57286633128744 109.17059783418038,110.82531754730547 131.25" stroke="hsl(30, 100%, 85%)" stroke-width="5.0" fill="none"/>
<path d="M174.55127018922192,132.47595264191648C152.4718680234023 119.72840385793451,123.57286633128744 109.17059783418038,110.82531754730547 131.25" stroke="white" stroke-width="2.5" fill="none"/>
<path d="M132.47595264191645,174.55127018922195C128.9404187359837 168.427545832264,121.52435945156891 166.4404187359837,115.40063509461096 169.97595264191648" stroke="hsl(30, 100%, 85%)" stroke-width="5.0" fill="none"/>
<path d="M132.47595264191645,174.55127018922195C128.9404187359837 168.427545832264,121.52435945156891 166.4404187359837,115.40063509461096 169.97595264191648" stroke="white" stroke-width="2.5" fill="none"/>
<path d="M155.80127018922192,143.30127018922195C155.80127018922192 119.52749516579185,151.83869311414645 101.06156996440956,131.25 89.17468245269451" stroke="hsl(30, 100%, 85%)" stroke-width="5.0" fill="none"/>
<path d="M155.80127018922192,143.30127018922195C155.80127018922192 119.52749516579185,151.83869311414645 101.06156996440956,131.25 89.17468245269451" stroke="white" stroke-width="2.5" fill="none"/>
<path d="M187.05127018922192,89.17468245269453C155.83205672012974 107.1991037529633,136.0488426005375 112.5,100.0 112.5" stroke="hsl(30, 100%, 85%)" stroke-width="5.0" fill="none"/>
<path d="M187.05127018922192,89.17468245269453C155.83205672012974 107.1991037529633,136.0488426005375 112.5,100.0 112.5" stroke="white" stroke-width="2.5" fill="none"/>
<path d="M187.05127018922192,110.82531754730549C176.21041932971445 104.56634938532427,176.23492080389767 95.44021576489651,169.97595264191642 84.59936490538904" stroke="hsl(30, 100%, 85%)" stroke-width="5.0" fill="none"/>
<path d="M187.05127018922192,110.82531754730549C176.21041932971445 104.56634938532427,176.23492080389767 95.44021576489651,169.97595264191642 84.59936490538904" stroke="white" stroke-width="2.5" fill="none"/>
<path d="M143.30127018922192,155.80127018922195C131.74732501651619 155.80127018922195,125.40664512810673 154.10229013365836,115.40063509461096 148.32531754730547" stroke="hsl(30, 100%, 85%)" stroke-width="5.0" fill="none"/>
<path d="M143.30127018922192,155.80127018922195C131.74732501651619 155.80127018922195,125.40664512810673 154.10229013365836,115.40063509461096 148.32531754730547" stroke="white" stroke-width="2.5" fill="none"/>
<polygon points="137.5 78.34936490538902 125.0 100.0 100.0 100.0 100.0 125.0 121.65063509461096 137.5 109.15063509461096 159.15063509461098 121.65063509461096 180.80127018922195 143.30127018922192 168.30127018922195 143.30127018922192 143.30127018922195 168.30127018922192 143.30127018922195 180.80127018922192 121.65063509461098 193.30127018922192 100.0 180.80127018922192 78.34936490538904 159.15063509461095 90.84936490538904 137.5 78.34936490538902" stroke="black" fill="none"/>
<polygon points="180.80127018922195 78.34936490538902 193.30127018922195 100.0 180.80127018922195 121.65063509461098 202.45190528383293 134.15063509461098 224.1025403784439 121.65063509461098 236.6025403784439 143.30127018922195 261.6025403784439 143.30127018922195 261.6025403784439 118.30127018922195 239.95190528383296 105.80127018922194 252.45190528383296 84.15063509461098 239.95190528383296 62.500000000000014 227.45190528383296 40.84936490538905 202.45190528383296 40.849364905389045 202.45190528383296 65.84936490538905 180.80127018922198 78.34936490538905" stroke="none" fill="hsl(90, 100%, 85%)"/>
<path d="M191.62658773652745,72.09936490538904C199.42564649687188 85.60773092952078,200.55963621335368 118.62437630764994,187.05127018922195 110.82531754730549" stroke="hsl(90, 100%, 85%)" stroke-width="5.0" fill="none"/>
<path d="M191.62658773652745,72.09936490538904C199.42564649687188 85.60773092952078,200.55963621335368 118.62437630764994,187.05127018922195 110.82531754730549" stroke="white" stroke-width="2.5" fill="none"/>
<path d="M246.20190528383296,73.3253175473055C224.12250311801336 86.07286633128747,200.52967404715645 105.82123292879136,213.27722283113843 127.90063509461098" stroke="hsl(90, 100%, 85%)" stroke-width="5.0" fill="none"/>
<path d="M246.20190528383296,73.3253175473055C224.12250311801336 86.07286633128747,200.52967404715645 105.82123292879136,213.27722283113843 127.90063509461098" stroke="white" stroke-width="2.5" fill="none"/>
<path d="M261.6025403784439,130.80127018922195C254.53147256657843 130.80127018922195,249.1025403784439 136.23020237735648,249.1025403784439 143.30127018922195" stroke="hsl(90, 100%, 85%)" stroke-width="5.0" fill="none"/>
<path d="M261.6025403784439,130.80127018922195C254.53147256657843 130.80127018922195,249.1025403784439 136.23020237735648,249.1025403784439 143.30127018922195" stroke="white" stroke-width="2.5" fill="none"/>
<path d="M246.20190528383296,94.97595264191645C225.6132121696865 83.08906513020139,207.6399633033684 77.28779494097945,187.05127018922195 89.17468245269451" stroke="hsl(90, 100%, 85%)" stroke-width="5.0" fill="none"/>
<path d="M246.20190528383296,94.97595264191645C225.6132121696865 83.08906513020139,207.6399633033684 77.28779494097945,187.05127018922195 89.17468245269451" stroke="white" stroke-width="2.5" fill="none"/>
<path d="M214.95190528383296,40.84936490538905C214.95190528383296 76.89820750592658,209.6510090367962 96.6814216255188,191.62658773652743 127.90063509461098" stroke="hsl(90, 100%, 85%)" stroke-width="5.0" fill="none"/>
<path d="M214.95190528383296,40.84936490538905C214.95190528383296 76.89820750592658,209.6510090367962 96.6814216255188,191.62658773652743 127.90063509461098" stroke="white" stroke-width="2.5" fill="none"/>
<path d="M233.70190528383296,51.67468245269453C222.86105442432552 57.93365061467575,214.9698416077954 53.34936490538905,202.45190528383296 53.34936490538905" stroke="hsl(90, 100%, 85%)" stroke-width="5.0" fill="none"/>
<path d="M233.70190528383296,51.67468245269453C222.86105442432552 57.93365061467575,214.9698416077954 53.34936490538905,202.45190528383296 53.34936490538905" stroke="white" stroke-width="2.5" fill="none"/>
<path d="M250.77722283113843,112.05127018922195C245.00025024478555 122.05728022271771,240.35855041193966 126.6989800555636,230.3525403784439 132.47595264191648" stroke="hsl(90, 100%, 85%)" stroke-width="5.0" fill="none"/>
<path d="M250.77722283113843,112.05127018922195C245.00025024478555 122.05728022271771,240.35855041193966 126.6989800555636,230.3525403784439 132.47595264191648" stroke="white" stroke-width="2.5" fill="none"/>
<polygon points="180.80127018922195 78.34936490538902 193.30127018922195 100.0 180.80127018922195 121.65063509461098 202.45190528383293 134.15063509461098 224.1025403784439 121.65063509461098 236.6025403784439 143.30127018922195 261.6025403784439 143.30127018922195 261.6025403784439 118.30127018922195 239.95190528383296 105.80127018922194 252.45190528383296 84.15063509461098 239.95190528383296 62.500000000000014 227.45190528383296 40.84936490538905 202.45190528383296 40.849364905389045 202.45190528383296 65.84936490538905 180.80127018922198 78.34936490538905" stroke="black" fill="none"/>
<polygon points="239.95190528383296 105.80127018922194 261.6025403784439 118.30127018922194 283.25317547305485 105.80127018922194 295.75317547305485 127.4519052838329 320.75317547305485 127.4519052838329 320.75317547305485 102.4519052838329 299.1025403784439 89.95190528383289 311.6025403784439 68.30127018922192 299.1025403784439 46.65063509461096 286.6025403784439 24.999999999999996 261.6025403784439 24.999999999999993 261.6025403784439 49.99999999999999 239.95190528383293 62.5 252.4519052838329 84.15063509461098 239.9519052838329 105.80127018922194" stroke="none" fill="hsl(90, 100%, 85%)"/>
<path d="M250.77722283113843,56.25C258.5762815914829 69.75836602413173,259.71027130796466 102.77501140226087,246.20190528383293 94.97595264191645" stroke="hsl(90, 100%, 85%)" stroke-width="5.0" fill="none"/>
<path d="M250.77722283113843,56.25C258.5762815914829 69.75836602413173,259.71027130796466 102.77501140226087,246.20190528383293 94.97595264191645" stroke="white" stroke-width="2.5" fill="none"/>
<path d="M305.3525403784439,57.47595264191644C283.2731382126243 70.22350142589842,259.6803091417674 89.97186802340232,272.4278579257494 112.05127018922194" stroke="hsl(90, 100%, 85%)" stroke-width="5.0" fill="none"/>
<path d="M305.3525403784439,57.47595264191644C283.2731382126243 70.22350142589842,259.6803091417674 89.97186802340232,272.4278579257494 112.05127018922194" stroke="white" stroke-width="2.5" fill="none"/>
<path d="M320.75317547305485,114.9519052838329C313.6821076611894 114.9519052838329,308.25317547305485 120.38083747196742,308.25317547305485 127.4519052838329" stroke="hsl(90, 100%, 85%)" stroke-width="5.0" fill="none"/>
<path d="M320.75317547305485,114.9519052838329C313.6821076611894 114.9519052838329,308.25317547305485 120.38083747196742,308.25317547305485 127.4519052838329" stroke="white" stroke-width="2.5" fill="none"/>
<path d="M305.3525403784439,79.1265877365274C284.76384726429745 67.23970022481234,266.7905983979794 61.43843003559046,246.2019052838329 73.32531754730549" stroke="hsl(90, 100%, 85%)" stroke-width="5.0" fill="none"/>
<path d="M305.3525403784439,79.1265877365274C284.76384726429745 67.23970022481234,266.7905983979794 61.43843003559046,246.2019052838329 73.32531754730549" stroke="white" stroke-width="2.5" fill="none"/>
<path d="M274.1025403784439,24.999999999999993C274.1025403784439 61.048842600537526,268.8016441314072 80.83205672012976,250.77722283113843 112.05127018922194" stroke="hsl(90, 100%, 85%)" stroke-width="5.0" fill="none"/>
<path d="M274.1025403784439,24.999999999999993C274.1025403784439 61.048842600537526,268.8016441314072 80.83205672012976,250.77722283113843 112.05127018922194" stroke="white" stroke-width="2.5" fill="none"/>
<path d="M292.8525403784439,35.82531754730548C282.01168951893646 42.084285709286696,274.12047670240634 37.49999999999999,261.6025403784439 37.49999999999999" stroke="hsl(90, 100%, 85%)" stroke-width="5.0" fill="none"/>
<path d="M292.8525403784439,35.82531754730548C282.01168951893646 42.084285709286696,274.12047670240634 37.49999999999999,261.6025403784439 37.49999999999999" stroke="white" stroke-width="2.5" fill="none"/>
<path d="M309.9278579257494,96.2019052838329C304.1508853393965 106.20791531732866,299.50918550655064 110.84961515017454,289.50317547305485 116.62658773652743" stroke="hsl(90, 100%, 85%)" stroke-width="5.0" fill="none"/>
<path d="M309.9278579257494,96.2019052838329C304.1508853393965 106.20791531732866,299.50918550655064 110.84961515017454,289.50317547305485 116.62658773652743" stroke="white" stroke-width="2.5" fill="none"/>
<polygon points="239.95190528383296 105.80127018922194 261.6025403784439 118.30127018922194 283.25317547305485 105.80127018922194 295.75317547305485 127.4519052838329 320.75317547305485 127.4519052838329 320.75317547305485 102.4519052838329 299.1025403784439 89.95190528383289 311.6025403784439 68.30127018922192 299.1025403784439 46.65063509461096 286.6025403784439 24.999999999999996 261.6025403784439 24.999999999999993 261.6025403784439 49.99999999999999 239.95190528383293 62.5 252.4519052838329 84.15063509461098 239.9519052838329 105.80127018922194" stroke="black" fill="none"/>
<polygon points="180.80127018922195 121.65063509461098 168.30127018922195 143.30127018922195 143.30127018922195 143.30127018922195 143.30127018922195 168.30127018922195 164.95190528383293 180.80127018922195 152.45190528383293 202.45190528383293 164.95190528383293 224.1025403784439 186.6025403784439 211.6025403784439 186.6025403784439 186.6025403784439 211.6025403784439 186.6025403784439 224.1025403784439 164.95190528383293 236.6025403784439 143.30127018922195 224.1025403784439 121.65063509461099 202.45190528383293 134.150635094611 180.80127018922198 121.65063509461099" stroke="none" fill="hsl(30, 100%, 85%)"/>
<path d="M191.62658773652743,127.90063509461099C183.82752897618298 141.4090011187427,155.80127018922195 158.89938770991085,155.80127018922195 143.30127018922195" stroke="hsl(30, 100%, 85%)" stroke-width="5.0" fill="none"/>
<path d="M191.62658773652743,127.90063509461099C183.82752897618298 141.4090011187427,155.80127018922195 158.89938770991085,155.80127018922195 143.30127018922195" stroke="white" stroke-width="2.5" fill="none"/>
<path d="M217.8525403784439,175.77722283113843C195.77313821262427 163.02967404715645,166.8741365205094 152.47186802340232,154.12658773652743 174.55127018922195" stroke="hsl(30, 100%, 85%)" stroke-width="5.0" fill="none"/>
<path d="M217.8525403784439,175.77722283113843C195.77313821262427 163.02967404715645,166.8741365205094 152.47186802340232,154.12658773652743 174.55127018922195" stroke="white" stroke-width="2.5" fill="none"/>
<path d="M175.77722283113843,217.8525403784439C172.24168892520566 211.72881602148595,164.82562964079088 209.74168892520566,158.70190528383293 213.27722283113843" stroke="hsl(30, 100%, 85%)" stroke-width="5.0" fill="none"/>
<path d="M175.77722283113843,217.8525403784439C172.24168892520566 211.72881602148595,164.82562964079088 209.74168892520566,158.70190528383293 213.27722283113843" stroke="white" stroke-width="2.5" fill="none"/>
<path d="M199.1025403784439,186.6025403784439C199.1025403784439 162.82876535501381,195.1399633033684 144.3628401536315,174.55127018922195 132.47595264191648" stroke="hsl(30, 100%, 85%)" stroke-width="5.0" fill="none"/>
<path d="M199.1025403784439,186.6025403784439C199.1025403784439 162.82876535501381,195.1399633033684 144.3628401536315,174.55127018922195 132.47595264191648" stroke="white" stroke-width="2.5" fill="none"/>
<path d="M230.3525403784439,132.47595264191648C199.13332690935172 150.50037394218526,179.3501127897595 155.80127018922195,143.30127018922195 155.80127018922195" stroke="hsl(30, 100%, 85%)" stroke-width="5.0" fill="none"/>
<path d="M230.3525403784439,132.47595264191648C199.13332690935172 150.50037394218526,179.3501127897595 155.80127018922195,143.30127018922195 155.80127018922195" stroke="white" stroke-width="2.5" fill="none"/>
<path d="M230.3525403784439,154.12658773652743C219.51168951893646 147.86761957454624,219.53619099311965 138.74148595411845,213.27722283113843 127.900635094611" stroke="hsl(30, 100%, 85%)" stroke-width="5.0" fill="none"/>
<path d="M230.3525403784439,154.12658773652743C219.51168951893646 147.86761957454624,219.53619099311965 138.74148595411845,213.27722283113843 127.900635094611" stroke="white" stroke-width="2.5" fill="none"/>
<path d="M186.6025403784439,199.1025403784439C175.04859520573817 199.1025403784439,168.70791531732868 197.4035603228803,158.70190528383293 191.62658773652743" stroke="hsl(30, 100%, 85%)" stroke-width="5.0" fill="none"/>
<path d="M186.6025403784439,199.1025403784439C175.04859520573817 199.1025403784439,168.70791531732868 197.4035603228803,158.70190528383293 191.62658773652743" stroke="white" stroke-width="2.5" fill="none"/>
<polygon points="180.80127018922195 121.65063509461098 168.30127018922195 143.30127018922195 143.30127018922195 143.30127018922195 143.30127018922195 168.30127018922195 164.95190528383293 180.80127018922195 152.45190528383293 202.45190528383293 164.95190528383293 224.1025403784439 186.6025403784439 211.6025403784439 186.6025403784439 186.6025403784439 211.6025403784439 186.6025403784439 224.1025403784439 164.95190528383293 236.6025403784439 143.30127018922195 224.1025403784439 121.65063509461099 202.45190528383293 134.150635094611 180.80127018922198 121.65063509461099" stroke="black" fill="none"/>
<polygon points="261.6025403784439 143.30127018922195 236.6025403784439 143.30127018922195 224.1025403784439 164.95190528383293 211.6025403784439 186.6025403784439 224.1025403784439 208.25317547305488 245.75317547305488 195.75317547305488 267.40381056766586 208.25317547305488 279.90381056766586 186.6025403784439 304.90381056766586 186.6025403784439 304.90381056766586 161.6025403784439 283.2531754730549 149.1025403784439 295.7531754730549 127.45190528383293 283.2531754730549 105.80127018922197 261.60254037844396 118.30127018922197 261.60254037844396 143.30127018922195" stroke="none" fill="hsl(210, 100%, 85%)"/>
<path d="M256.5784930203604,202.00317547305488C264.37755178070483 188.49480944892315,292.40381056766586 171.004422857755,292.40381056766586 186.6025403784439" stroke="hsl(210, 100%, 85%)" stroke-width="5.0" fill="none"/>
<path d="M256.5784930203604,202.00317547305488C264.37755178070483 188.49480944892315,292.40381056766586 171.004422857755,292.40381056766586 186.6025403784439" stroke="white" stroke-width="2.5" fill="none"/>
<path d="M230.3525403784439,154.12658773652743C252.43194254426353 166.8741365205094,281.3309442363784 177.43194254426353,294.0784930203604 155.3525403784439" stroke="hsl(210, 100%, 85%)" stroke-width="5.0" fill="none"/>
<path d="M230.3525403784439,154.12658773652743C252.43194254426353 166.8741365205094,281.3309442363784 177.43194254426353,294.0784930203604 155.3525403784439" stroke="white" stroke-width="2.5" fill="none"/>
<path d="M272.42785792574944,112.05127018922197C275.96339183168215 118.1749945461799,283.37945111609696 120.16212164246019,289.5031754730549 116.62658773652745" stroke="hsl(210, 100%, 85%)" stroke-width="5.0" fill="none"/>
<path d="M272.42785792574944,112.05127018922197C275.96339183168215 118.1749945461799,283.37945111609696 120.16212164246019,289.5031754730549 116.62658773652745" stroke="white" stroke-width="2.5" fill="none"/>
<path d="M249.1025403784439,143.30127018922195C249.1025403784439 167.07504521265207,253.0651174535194 185.54097041403435,273.65381056766586 197.42785792574938" stroke="hsl(210, 100%, 85%)" stroke-width="5.0" fill="none"/>
<path d="M249.1025403784439,143.30127018922195C249.1025403784439 167.07504521265207,253.0651174535194 185.54097041403435,273.65381056766586 197.42785792574938" stroke="white" stroke-width="2.5" fill="none"/>
<path d="M217.8525403784439,197.42785792574938C249.07175384753612 179.40343662548062,268.85496796712835 174.1025403784439,304.90381056766586 174.1025403784439" stroke="hsl(210, 100%, 85%)" stroke-width="5.0" fill="none"/>
<path d="M217.8525403784439,197.42785792574938C249.07175384753612 179.40343662548062,268.85496796712835 174.1025403784439,304.90381056766586 174.1025403784439" stroke="white" stroke-width="2.5" fill="none"/>
<path d="M217.8525403784439,175.77722283113843C228.69339123795137 182.03619099311965,228.6688897637682 191.1623246135474,234.92785792574938 202.00317547305488" stroke="hsl(210, 100%, 85%)" stroke-width="5.0" fill="none"/>
<path d="M217.8525403784439,175.77722283113843C228.69339123795137 182.03619099311965,228.6688897637682 191.1623246135474,234.92785792574938 202.00317547305488" stroke="white" stroke-width="2.5" fill="none"/>
<path d="M261.6025403784439,130.80127018922195C273.1564855511497 130.80127018922198,279.4971654395591 132.50025024478555,289.5031754730549 138.27722283113843" stroke="hsl(210, 100%, 85%)" stroke-width="5.0" fill="none"/>
<path d="M261.6025403784439,130.80127018922195C273.1564855511497 130.80127018922198,279.4971654395591 132.50025024478555,289.5031754730549 138.27722283113843" stroke="white" stroke-width="2.5" fill="none"/>
<polygon points="261.6025403784439 143.30127018922195 236.6025403784439 143.30127018922195 224.1025403784439 164.95190528383293 211.6025403784439 186.6025403784439 224.1025403784439 208.25317547305488 245.75317547305488 195.75317547305488 267.40381056766586 208.25317547305488 279.90381056766586 186.6025403784439 304.90381056766586 186.6025403784439 304.90381056766586 161.6025403784439 283.2531754730549 149.1025403784439 295.7531754730549 127.45190528383293 283.2531754730549 105.80127018922197 261.60254037844396 118.30127018922197 261.60254037844396 143.30127018922195" stroke="black" fill="none"/>
<polygon points="186.6025403784439 186.6025403784439 186.6025403784439 211.6025403784439 208.25317547305488 224.1025403784439 195.75317547305488 245.75317547305488 208.25317547305488 267.40381056766586 220.75317547305488 289.0544456622768 245.75317547305488 289.0544456622768 245.75317547305488 264.0544456622768 267.40381056766586 251.5544456622768 254.90381056766586 229.90381056766583 267.40381056766586 208.25317547305485 245.7531754730549 195.75317547305485 224.10254037844393 208.25317547305485 211.60254037844393 186.60254037844388 186.60254037844393 186.60254037844388" stroke="none" fill="hsl(270, 100%, 85%)"/>
<path d="M256.5784930203604,257.8044456622768C248.77943426001593 244.29607963814507,247.64544454353413 211.27943426001588,261.15381056766586 219.07849302036033" stroke="hsl(270, 100%, 85%)" stroke-width="5.0" fill="none"/>
<path d="M256.5784930203604,257.8044456622768C248.77943426001593 244.29607963814507,247.64544454353413 211.27943426001588,261.15381056766586 219.07849302036033" stroke="white" stroke-width="2.5" fill="none"/>
<path d="M202.00317547305488,256.5784930203604C224.0825776388745 243.8309442363784,247.6754067097314 224.08257763887448,234.92785792574944 202.00317547305485" stroke="hsl(270, 100%, 85%)" stroke-width="5.0" fill="none"/>
<path d="M202.00317547305488,256.5784930203604C224.0825776388745 243.8309442363784,247.6754067097314 224.08257763887448,234.92785792574944 202.00317547305485" stroke="white" stroke-width="2.5" fill="none"/>
<path d="M186.6025403784439,199.1025403784439C193.67360819030938 199.1025403784439,199.10254037844393 193.67360819030935,199.1025403784439 186.6025403784439" stroke="hsl(270, 100%, 85%)" stroke-width="5.0" fill="none"/>
<path d="M186.6025403784439,199.1025403784439C193.67360819030938 199.1025403784439,199.10254037844393 193.67360819030935,199.1025403784439 186.6025403784439" stroke="white" stroke-width="2.5" fill="none"/>
<path d="M202.00317547305488,234.92785792574938C222.59186858720133 246.81474543746444,240.5651174535194 252.61601562668636,261.15381056766586 240.72912811497133" stroke="hsl(270, 100%, 85%)" stroke-width="5.0" fill="none"/>
<path d="M202.00317547305488,234.92785792574938C222.59186858720133 246.81474543746444,240.5651174535194 252.61601562668636,261.15381056766586 240.72912811497133" stroke="white" stroke-width="2.5" fill="none"/>
<path d="M233.25317547305488,289.0544456622768C233.25317547305488 253.00560306173927,238.5540717200916 233.22238894214703,256.5784930203604 202.00317547305485" stroke="hsl(270, 100%, 85%)" stroke-width="5.0" fill="none"/>
<path d="M233.25317547305488,289.0544456622768C233.25317547305488 253.00560306173927,238.5540717200916 233.22238894214703,256.5784930203604 202.00317547305485" stroke="white" stroke-width="2.5" fill="none"/>
<path d="M214.50317547305488,278.22912811497133C225.34402633256235 271.9701599529901,233.23523914909245 276.5544456622768,245.75317547305488 276.5544456622768" stroke="hsl(270, 100%, 85%)" stroke-width="5.0" fill="none"/>
<path d="M214.50317547305488,278.22912811497133C225.34402633256235 271.9701599529901,233.23523914909245 276.5544456622768,245.75317547305488 276.5544456622768" stroke="white" stroke-width="2.5" fill="none"/>
<path d="M197.42785792574938,217.8525403784439C203.20483051210226 207.84653034494815,207.84653034494818 203.20483051210223,217.85254037844393 197.42785792574938" stroke="hsl(270, 100%, 85%)" stroke-width="5.0" fill="none"/>
<path d="M197.42785792574938,217.8525403784439C203.20483051210226 207.84653034494815,207.84653034494818 203.20483051210223,217.85254037844393 197.42785792574938" stroke="white" stroke-width="2.5" fill="none"/>
<polygon points="186.6025403784439 186.6025403784439 186.6025403784439 211.6025403784439 208.25317547305488 224.1025403784439 195.75317547305488 245.75317547305488 208.25317547305488 267.40381056766586 220.75317547305488 289.0544456622768 245.75317547305488 289.0544456622768 245.75317547305488 264.0544456622768 267.40381056766586 251.5544456622768 254.90381056766586 229.90381056766583 267.40381056766586 208.25317547305485 245.7531754730549 195.75317547305485 224.10254037844393 208.25317547305485 211.60254037844393 186.60254037844388 186.60254037844393 186.60254037844388" stroke="black" fill="none"/>
<polygon points="208.25317547305488 224.1025403784439 186.6025403784439 211.6025403784439 164.95190528383293 224.1025403784439 152.45190528383293 202.45190528383293 127.45190528383293 202.45190528383293 127.45190528383293 227.45190528383293 149.1025403784439 239.95190528383293 136.6025403784439 261.6025403784439 149.1025403784439 283.25317547305485 161.6025403784439 304.9038105676658 186.6025403784439 304.9038105676658 186.6025403784439 279.9038105676658 208.25317547305488 267.4038105676658 195.75317547305488 245.75317547305482 208.25317547305488 224.10254037844385" stroke="none" fill="hsl(270, 100%, 85%)"/>
<path d="M197.42785792574938,273.6538105676658C189.62879916540496 260.1454445435341,188.49480944892318 227.1287991654049,202.00317547305488 234.92785792574938" stroke="hsl(270, 100%, 85%)" stroke-width="5.0" fill="none"/>
<path d="M197.42785792574938,273.6538105676658C189.62879916540496 260.1454445435341,188.49480944892318 227.1287991654049,202.00317547305488 234.92785792574938" stroke="white" stroke-width="2.5" fill="none"/>
<path d="M142.8525403784439,272.4278579257494C164.9319425442635 259.6803091417674,188.5247716151204 239.93194254426353,175.77722283113843 217.8525403784439" stroke="hsl(270, 100%, 85%)" stroke-width="5.0" fill="none"/>
<path d="M142.8525403784439,272.4278579257494C164.9319425442635 259.6803091417674,188.5247716151204 239.93194254426353,175.77722283113843 217.8525403784439" stroke="white" stroke-width="2.5" fill="none"/>
<path d="M127.45190528383293,214.95190528383293C134.5229730956984 214.95190528383293,139.95190528383293 209.5229730956984,139.95190528383293 202.45190528383293" stroke="hsl(270, 100%, 85%)" stroke-width="5.0" fill="none"/>
<path d="M127.45190528383293,214.95190528383293C134.5229730956984 214.95190528383293,139.95190528383293 209.5229730956984,139.95190528383293 202.45190528383293" stroke="white" stroke-width="2.5" fill="none"/>
<path d="M142.8525403784439,250.77722283113843C163.44123349259036 262.66411034285346,181.41448235890843 268.46538053207536,202.00317547305488 256.5784930203603" stroke="hsl(270, 100%, 85%)" stroke-width="5.0" fill="none"/>
<path d="M142.8525403784439,250.77722283113843C163.44123349259036 262.66411034285346,181.41448235890843 268.46538053207536,202.00317547305488 256.5784930203603" stroke="white" stroke-width="2.5" fill="none"/>
<path d="M174.1025403784439,304.9038105676658C174.1025403784439 268.8549679671283,179.40343662548065 249.0717538475361,197.42785792574938 217.8525403784439" stroke="hsl(270, 100%, 85%)" stroke-width="5.0" fill="none"/>
<path d="M174.1025403784439,304.9038105676658C174.1025403784439 268.8549679671283,179.40343662548065 249.0717538475361,197.42785792574938 217.8525403784439" stroke="white" stroke-width="2.5" fill="none"/>
<path d="M155.3525403784439,294.0784930203603C166.19339123795135 287.8195248583791,174.08460405448147 292.4038105676658,186.6025403784439 292.4038105676658" stroke="hsl(270, 100%, 85%)" stroke-width="5.0" fill="none"/>
<path d="M155.3525403784439,294.0784930203603C166.19339123795135 287.8195248583791,174.08460405448147 292.4038105676658,186.6025403784439 292.4038105676658" stroke="white" stroke-width="2.5" fill="none"/>
<path d="M138.27722283113843,233.70190528383293C144.0541954174913 223.69589525033717,148.69589525033717 219.0541954174913,158.70190528383293 213.27722283113843" stroke="hsl(270, 100%, 85%)" stroke-width="5.0" fill="none"/>
<path d="M138.27722283113843,233.70190528383293C144.0541954174913 223.69589525033717,148.69589525033717 219.0541954174913,158.70190528383293 213.27722283113843" stroke="white" stroke-width="2.5" fill="none"/>
<polygon points="208.25317547305488 224.1025403784439 186.6025403784439 211.6025403784439 164.95190528383293 224.1025403784439 152.45190528383293 202.45190528383293 127.45190528383293 202.45190528383293 127.45190528383293 227.45190528383293 149.1025403784439 239.95190528383293 136.6025403784439 261.6025403784439 149.1025403784439 283.25317547305485 161.6025403784439 304.9038105676658 186.6025403784439 304.9038105676658 186.6025403784439 279.9038105676658 208.25317547305488 267.4038105676658 195.75317547305488 245.75317547305482 208.25317547305488 224.10254037844385" stroke="black" fill="none"/>
<polygon points="164.95190528383293 180.80127018922195 143.30127018922198 168.30127018922195 121.65063509461102 180.80127018922195 109.15063509461102 159.15063509461098 84.15063509461102 159.15063509461098 59.15063509461102 159.15063509461098 46.650635094611005 180.80127018922192 68.30127018922198 193.30127018922192 68.30127018922198 218.30127018922192 93.30127018922198 218.30127018922192 105.80127018922197 239.9519052838329 127.45190528383294 227.45190528383293 127.45190528383296 202.45190528383293 152.45190528383296 202.45190528383293 164.95190528383296 180.80127018922195" stroke="none" fill="hsl(150, 100%, 85%)"/>
<path d="M68.30127018922198,205.80127018922192C83.89938770991088 205.80127018922192,113.05963621335371 221.32752897618298,99.55127018922198 229.12658773652743" stroke="hsl(150, 100%, 85%)" stroke-width="5.0" fill="none"/>
<path d="M68.30127018922198,205.80127018922192C83.89938770991088 205.80127018922192,113.05963621335371 221.32752897618298,99.55127018922198 229.12658773652743" stroke="white" stroke-width="2.5" fill="none"/>
<path d="M96.65063509461102,159.15063509461098C96.65063509461102 184.64573266257491,101.95680771586902 214.95190528383293,127.45190528383296 214.95190528383293" stroke="hsl(150, 100%, 85%)" stroke-width="5.0" fill="none"/>
<path d="M96.65063509461102,159.15063509461098C96.65063509461102 184.64573266257491,101.95680771586902 214.95190528383293,127.45190528383296 214.95190528383293" stroke="white" stroke-width="2.5" fill="none"/>
<path d="M154.12658773652745,174.55127018922195C150.59105383059472 180.6749945461799,152.57818092687498 188.09105383059472,158.70190528383296 191.62658773652743" stroke="hsl(150, 100%, 85%)" stroke-width="5.0" fill="none"/>
<path d="M154.12658773652745,174.55127018922195C150.59105383059472 180.6749945461799,152.57818092687498 188.09105383059472,158.70190528383296 191.62658773652743" stroke="white" stroke-width="2.5" fill="none"/>
<path d="M115.40063509461102,169.97595264191648C94.81194198046458 181.8628401536315,80.80127018922198 194.52749516579183,80.80127018922198 218.30127018922192" stroke="hsl(150, 100%, 85%)" stroke-width="5.0" fill="none"/>
<path d="M115.40063509461102,169.97595264191648C94.81194198046458 181.8628401536315,80.80127018922198 194.52749516579183,80.80127018922198 218.30127018922192" stroke="white" stroke-width="2.5" fill="none"/>
<path d="M52.90063509461101,169.97595264191645C84.11984856370319 188.00037394218523,98.60216643625873 202.48269181474072,116.62658773652745 233.7019052838329" stroke="hsl(150, 100%, 85%)" stroke-width="5.0" fill="none"/>
<path d="M52.90063509461101,169.97595264191645C84.11984856370319 188.00037394218523,98.60216643625873 202.48269181474072,116.62658773652745 233.7019052838329" stroke="white" stroke-width="2.5" fill="none"/>
<path d="M71.65063509461102,159.15063509461098C71.65063509461102 171.6685714185734,63.73492080389771 176.21041932971448,57.47595264191649 187.05127018922192" stroke="hsl(150, 100%, 85%)" stroke-width="5.0" fill="none"/>
<path d="M71.65063509461102,159.15063509461098C71.65063509461102 171.6685714185734,63.73492080389771 176.21041932971448,57.47595264191649 187.05127018922192" stroke="white" stroke-width="2.5" fill="none"/>
<path d="M132.4759526419165,174.55127018922195C138.25292522826936 184.5572802227177,139.95190528383296 190.8979601111272,139.95190528383296 202.45190528383293" stroke="hsl(150, 100%, 85%)" stroke-width="5.0" fill="none"/>
<path d="M132.4759526419165,174.55127018922195C138.25292522826936 184.5572802227177,139.95190528383296 190.8979601111272,139.95190528383296 202.45190528383293" stroke="white" stroke-width="2.5" fill="none"/>
<polygon points="164.95190528383293 180.80127018922195 143.30127018922198 168.30127018922195 121.65063509461102 180.80127018922195 109.15063509461102 159.15063509461098 84.15063509461102 159.15063509461098 59.15063509461102 159.15063509461098 46.650635094611005 180.80127018922192 68.30127018922198 193.30127018922192 68.30127018922198 218.30127018922192 93.30127018922198 218.30127018922192 105.80127018922197 239.9519052838329 127.45190528383294 227.45190528383293 127.45190528383296 202.45190528383293 152.45190528383296 202.45190528383293 164.95190528383296 180.80127018922195" stroke="black" fill="none"/>
<polygon points="121.65063509461096 137.5 100.0 124.99999999999999 100.0 99.99999999999999 75.0 99.99999999999999 62.5 78.34936490538902 40.84936490538904 90.84936490538902 40.84936490538903 115.84936490538902 15.84936490538903 115.84936490538902 3.34936490538902 137.49999999999997 24.99999999999999 149.99999999999997 46.65063509461097 137.5 59.15063509461095 159.15063509461098 84.15063509461095 159.15063509461098 109.15063509461095 159.15063509461098 121.65063509461095 137.5" stroke="none" fill="hsl(330, 100%, 85%)"/>
<path d="M100.0,112.49999999999999C84.4018824793111 112.49999999999999,55.24163397586827 96.97374121303896,68.75 89.1746824526945" stroke="hsl(330, 100%, 85%)" stroke-width="5.0" fill="none"/>
<path d="M100.0,112.49999999999999C84.4018824793111 112.49999999999999,55.24163397586827 96.97374121303896,68.75 89.1746824526945" stroke="white" stroke-width="2.5" fill="none"/>
<path d="M71.65063509461095,159.15063509461098C71.65063509461095 133.65553752664704,66.34446247335296 103.34936490538904,40.84936490538904 103.34936490538902" stroke="hsl(330, 100%, 85%)" stroke-width="5.0" fill="none"/>
<path d="M71.65063509461095,159.15063509461098C71.65063509461095 133.65553752664704,66.34446247335296 103.34936490538904,40.84936490538904 103.34936490538902" stroke="white" stroke-width="2.5" fill="none"/>
<path d="M14.174682452694505,143.74999999999997C17.710216358627243 137.62627564304202,15.723089262346965 130.21021635862724,9.599364905389026 126.6746824526945" stroke="hsl(330, 100%, 85%)" stroke-width="5.0" fill="none"/>
<path d="M14.174682452694505,143.74999999999997C17.710216358627243 137.62627564304202,15.723089262346965 130.21021635862724,9.599364905389026 126.6746824526945" stroke="white" stroke-width="2.5" fill="none"/>
<path d="M52.90063509461096,148.32531754730547C73.48932820875741 136.43843003559047,87.50000000000001 123.77377502343009,87.5 99.99999999999999" stroke="hsl(330, 100%, 85%)" stroke-width="5.0" fill="none"/>
<path d="M52.90063509461096,148.32531754730547C73.48932820875741 136.43843003559047,87.50000000000001 123.77377502343009,87.5 99.99999999999999" stroke="white" stroke-width="2.5" fill="none"/>
<path d="M115.40063509461095,148.32531754730547C84.18142162551878 130.30089624703672,69.69910375296328 115.8185783744812,51.67468245269452 84.59936490538902" stroke="hsl(330, 100%, 85%)" stroke-width="5.0" fill="none"/>
<path d="M115.40063509461095,148.32531754730547C84.18142162551878 130.30089624703672,69.69910375296328 115.8185783744812,51.67468245269452 84.59936490538902" stroke="white" stroke-width="2.5" fill="none"/>
<path d="M96.65063509461095,159.15063509461098C96.65063509461095 146.63269877064855,104.56634938532426 142.09085085950744,110.82531754730547 131.25" stroke="hsl(330, 100%, 85%)" stroke-width="5.0" fill="none"/>
<path d="M96.65063509461095,159.15063509461098C96.65063509461095 146.63269877064855,104.56634938532426 142.09085085950744,110.82531754730547 131.25" stroke="white" stroke-width="2.5" fill="none"/>
<path d="M35.82531754730548,143.75C30.04834496095262 133.74398996650422,28.34936490538903 127.40331007809476,28.34936490538903 115.84936490538902" stroke="hsl(330, 100%, 85%)" stroke-width="5.0" fill="none"/>
<path d="M35.82531754730548,143.75C30.04834496095262 133.74398996650422,28.34936490538903 127.40331007809476,28.34936490538903 115.84936490538902" stroke="white" stroke-width="2.5" fill="none"/>
<polygon points="121.65063509461096 137.5 100.0 124.99999999999999 100.0 99.99999999999999 75.0 99.99999999999999 62.5 78.34936490538902 40.84936490538904 90.84936490538902 40.84936490538903 115.84936490538902 15.84936490538903 115.84936490538902 3.34936490538902 137.49999999999997 24.99999999999999 149.99999999999997 46.65063509461097 137.5 59.15063509461095 159.15063509461098 84.15063509461095 159.15063509461098 109.15063509461095 159.15063509461098 121.65063509461095 137.5" stroke="black" fill="none"/>
<polygon points="279.90381056766586 186.6025403784439 267.40381056766586 208.25317547305488 254.90381056766586 229.90381056766586 267.40381056766586 251.55444566227683 289.0544456622768 239.05444566227683 310.70508075688775 251.55444566227683 323.20508075688775 229.90381056766586 348.20508075688775 229.90381056766586 348.20508075688775 204.90381056766586 326.5544456622768 192.40381056766586 339.0544456622768 170.75317547305488 326.5544456622768 149.1025403784439 304.90381056766586 161.6025403784439 304.90381056766586 186.6025403784439 279.90381056766586 186.6025403784439" stroke="none" fill="hsl(210, 100%, 85%)"/>
<path d="M299.8797632095823,245.30444566227683C307.67882196992673 231.7960796381451,335.70508075688775 214.30569304697696,335.70508075688775 229.90381056766586" stroke="hsl(210, 100%, 85%)" stroke-width="5.0" fill="none"/>
<path d="M299.8797632095823,245.30444566227683C307.67882196992673 231.7960796381451,335.70508075688775 214.30569304697696,335.70508075688775 229.90381056766586" stroke="white" stroke-width="2.5" fill="none"/>
<path d="M273.65381056766586,197.42785792574938C295.73321273348546 210.17540670973136,324.6322144256003 220.73321273348546,337.3797632095823 198.65381056766586" stroke="hsl(210, 100%, 85%)" stroke-width="5.0" fill="none"/>
<path d="M273.65381056766586,197.42785792574938C295.73321273348546 210.17540670973136,324.6322144256003 220.73321273348546,337.3797632095823 198.65381056766586" stroke="white" stroke-width="2.5" fill="none"/>
<path d="M315.72912811497133,155.3525403784439C319.26466202090404 161.47626473540186,326.68072130531885 163.46339183168212,332.8044456622768 159.92785792574938" stroke="hsl(210, 100%, 85%)" stroke-width="5.0" fill="none"/>
<path d="M315.72912811497133,155.3525403784439C319.26466202090404 161.47626473540186,326.68072130531885 163.46339183168212,332.8044456622768 159.92785792574938" stroke="white" stroke-width="2.5" fill="none"/>
<path d="M292.40381056766586,186.6025403784439C292.40381056766586 210.376315401874,296.3663876427413 228.8422406032563,316.95508075688775 240.72912811497133" stroke="hsl(210, 100%, 85%)" stroke-width="5.0" fill="none"/>
<path d="M292.40381056766586,186.6025403784439C292.40381056766586 210.376315401874,296.3663876427413 228.8422406032563,316.95508075688775 240.72912811497133" stroke="white" stroke-width="2.5" fill="none"/>
<path d="M261.15381056766586,240.72912811497133C292.373024036758 222.7047068147026,312.15623815635024 217.40381056766586,348.20508075688775 217.40381056766586" stroke="hsl(210, 100%, 85%)" stroke-width="5.0" fill="none"/>
<path d="M261.15381056766586,240.72912811497133C292.373024036758 222.7047068147026,312.15623815635024 217.40381056766586,348.20508075688775 217.40381056766586" stroke="white" stroke-width="2.5" fill="none"/>
<path d="M261.15381056766586,219.07849302036038C271.9946614271733 225.3374611823416,271.9701599529901 234.46359480276936,278.22912811497133 245.30444566227683" stroke="hsl(210, 100%, 85%)" stroke-width="5.0" fill="none"/>
<path d="M261.15381056766586,219.07849302036038C271.9946614271733 225.3374611823416,271.9701599529901 234.46359480276936,278.22912811497133 245.30444566227683" stroke="white" stroke-width="2.5" fill="none"/>
<path d="M304.90381056766586,174.1025403784439C316.4577557403716 174.1025403784439,322.7984356287811 175.8015204340075,332.8044456622768 181.57849302036038" stroke="hsl(210, 100%, 85%)" stroke-width="5.0" fill="none"/>
<path d="M304.90381056766586,174.1025403784439C316.4577557403716 174.1025403784439,322.7984356287811 175.8015204340075,332.8044456622768 181.57849302036038" stroke="white" stroke-width="2.5" fill="none"/>
<polygon points="279.90381056766586 186.6025403784439 267.40381056766586 208.25317547305488 254.90381056766586 229.90381056766586 267.40381056766586 251.55444566227683 289.0544456622768 239.05444566227683 310.70508075688775 251.55444566227683 323.20508075688775 229.90381056766586 348.20508075688775 229.90381056766586 348.20508075688775 204.90381056766586 326.5544456622768 192.40381056766586 339.0544456622768 170.75317547305488 326.5544456622768 149.1025403784439 304.90381056766586 161.6025403784439 304.90381056766586 186.6025403784439 279.90381056766586 186.6025403784439" stroke="black" fill="none"/>
<polygon points="283.2531754730549 149.1025403784439 304.90381056766586 161.6025403784439 326.5544456622768 149.1025403784439 339.0544456622768 170.75317547305488 364.0544456622768 170.75317547305488 389.0544456622768 170.75317547305488 401.5544456622768 149.1025403784439 379.90381056766586 136.6025403784439 379.90381056766586 111.6025403784439 354.90381056766586 111.6025403784439 342.40381056766586 89.95190528383294 320.7531754730549 102.45190528383294 320.7531754730549 127.45190528383294 295.7531754730549 127.45190528383294 283.2531754730549 149.1025403784439" stroke="none" fill="hsl(330, 100%, 85%)"/>
<path d="M379.90381056766586,124.1025403784439C364.30569304697696 124.1025403784439,335.14544454353415 108.57628159148288,348.65381056766586 100.77722283113843" stroke="hsl(330, 100%, 85%)" stroke-width="5.0" fill="none"/>
<path d="M379.90381056766586,124.1025403784439C364.30569304697696 124.1025403784439,335.14544454353415 108.57628159148288,348.65381056766586 100.77722283113843" stroke="white" stroke-width="2.5" fill="none"/>
<path d="M351.5544456622768,170.75317547305488C351.5544456622768 145.25807790509097,346.2482730410188 114.95190528383294,320.7531754730549 114.95190528383294" stroke="hsl(330, 100%, 85%)" stroke-width="5.0" fill="none"/>
<path d="M351.5544456622768,170.75317547305488C351.5544456622768 145.25807790509097,346.2482730410188 114.95190528383294,320.7531754730549 114.95190528383294" stroke="white" stroke-width="2.5" fill="none"/>
<path d="M294.0784930203604,155.3525403784439C297.61402692629315 149.22881602148595,295.62689983001286 141.81275673707117,289.5031754730549 138.27722283113843" stroke="hsl(330, 100%, 85%)" stroke-width="5.0" fill="none"/>
<path d="M294.0784930203604,155.3525403784439C297.61402692629315 149.22881602148595,295.62689983001286 141.81275673707117,289.5031754730549 138.27722283113843" stroke="white" stroke-width="2.5" fill="none"/>
<path d="M332.8044456622768,159.92785792574938C353.39313877642326 148.04097041403435,367.40381056766586 135.376315401874,367.40381056766586 111.6025403784439" stroke="hsl(330, 100%, 85%)" stroke-width="5.0" fill="none"/>
<path d="M332.8044456622768,159.92785792574938C353.39313877642326 148.04097041403435,367.40381056766586 135.376315401874,367.40381056766586 111.6025403784439" stroke="white" stroke-width="2.5" fill="none"/>
<path d="M395.3044456622768,159.92785792574938C364.08523219318465 141.90343662548065,349.60291432062917 127.42111875292511,331.5784930203604 96.20190528383294" stroke="hsl(330, 100%, 85%)" stroke-width="5.0" fill="none"/>
<path d="M395.3044456622768,159.92785792574938C364.08523219318465 141.90343662548065,349.60291432062917 127.42111875292511,331.5784930203604 96.20190528383294" stroke="white" stroke-width="2.5" fill="none"/>
<path d="M376.5544456622768,170.75317547305488C376.5544456622768 158.23523914909245,384.4701599529901 153.69339123795137,390.72912811497133 142.8525403784439" stroke="hsl(330, 100%, 85%)" stroke-width="5.0" fill="none"/>
<path d="M376.5544456622768,170.75317547305488C376.5544456622768 158.23523914909245,384.4701599529901 153.69339123795137,390.72912811497133 142.8525403784439" stroke="white" stroke-width="2.5" fill="none"/>
<path d="M315.72912811497133,155.3525403784439C309.95215552861845 145.34653034494815,308.2531754730549 139.0058504565387,308.2531754730549 127.45190528383294" stroke="hsl(330, 100%, 85%)" stroke-width="5.0" fill="none"/>
<path d="M315.72912811497133,155.3525403784439C309.95215552861845 145.34653034494815,308.2531754730549 139.0058504565387,308.2531754730549 127.45190528383294" stroke="white" stroke-width="2.5" fill="none"/>
<polygon points="283.2531754730549 149.1025403784439 304.90381056766586 161.6025403784439 326.5544456622768 149.1025403784439 339.0544456622768 170.75317547305488 364.0544456622768 170.75317547305488 389.0544456622768 170.75317547305488 401.5544456622768 149.1025403784439 379.90381056766586 136.6025403784439 379.90381056766586 111.6025403784439 354.90381056766586 111.6025403784439 342.40381056766586 89.95190528383294 320.7531754730549 102.45190528383294 320.7531754730549 127.45190528383294 295.7531754730549 127.45190528383294 283.2531754730549 149.1025403784439" stroke="black" fill="none"/>
<polygon points="289.0544456622768 239.05444566227683 267.40381056766586 251.55444566227683 245.75317547305488 264.05444566227686 245.75317547305488 289.05444566227686 270.75317547305485 289.05444566227686 283.25317547305485 310.7050807568878 304.9038105676658 298.2050807568878 326.55444566227675 310.7050807568878 339.05444566227675 289.05444566227686 326.55444566227675 267.4038105676659 348.2050807568877 254.90381056766591 348.2050807568877 229.90381056766591 323.2050807568877 229.90381056766591 310.7050807568877 251.55444566227686 289.05444566227675 239.05444566227686" stroke="none" fill="hsl(180, 100%, 85%)"/>
<path d="M277.00317547305485,299.87976320958234C290.51154149718656 292.0807044492379,323.5281868753157 290.9467147327561,315.7291281149713 304.4550807568878" stroke="hsl(180, 100%, 85%)" stroke-width="5.0" fill="none"/>
<path d="M277.00317547305485,299.87976320958234C290.51154149718656 292.0807044492379,323.5281868753157 290.9467147327561,315.7291281149713 304.4550807568878" stroke="white" stroke-width="2.5" fill="none"/>
<path d="M278.22912811497133,245.30444566227683C290.9766768989533 267.38384782809646,310.72504349645715 290.9766768989533,332.80444566227675 278.2291281149714" stroke="hsl(180, 100%, 85%)" stroke-width="5.0" fill="none"/>
<path d="M278.22912811497133,245.30444566227683C290.9766768989533 267.38384782809646,310.72504349645715 290.9766768989533,332.80444566227675 278.2291281149714" stroke="white" stroke-width="2.5" fill="none"/>
<path d="M335.7050807568877,229.90381056766591C335.7050807568877 236.9748783795314,341.1340129450222 242.40381056766591,348.2050807568877 242.40381056766591" stroke="hsl(180, 100%, 85%)" stroke-width="5.0" fill="none"/>
<path d="M335.7050807568877,229.90381056766591C335.7050807568877 236.9748783795314,341.1340129450222 242.40381056766591,348.2050807568877 242.40381056766591" stroke="white" stroke-width="2.5" fill="none"/>
<path d="M299.8797632095823,245.30444566227686C287.99287569786713 265.89313877642326,282.1916055086453 283.86638764274136,294.0784930203603 304.4550807568878" stroke="hsl(180, 100%, 85%)" stroke-width="5.0" fill="none"/>
<path d="M299.8797632095823,245.30444566227686C287.99287569786713 265.89313877642326,282.1916055086453 283.86638764274136,294.0784930203603 304.4550807568878" stroke="white" stroke-width="2.5" fill="none"/>
<path d="M245.75317547305488,276.55444566227686C281.80201807359236 276.55444566227686,301.5852321931846 281.85534190931355,332.80444566227675 299.87976320958234" stroke="hsl(180, 100%, 85%)" stroke-width="5.0" fill="none"/>
<path d="M245.75317547305488,276.55444566227686C281.80201807359236 276.55444566227686,301.5852321931846 281.85534190931355,332.80444566227675 299.87976320958234" stroke="white" stroke-width="2.5" fill="none"/>
<path d="M256.5784930203604,257.80444566227686C262.8374611823416 268.6452965217843,258.25317547305485 276.53650933831443,258.25317547305485 289.05444566227686" stroke="hsl(180, 100%, 85%)" stroke-width="5.0" fill="none"/>
<path d="M256.5784930203604,257.80444566227686C262.8374611823416 268.6452965217843,258.25317547305485 276.53650933831443,258.25317547305485 289.05444566227686" stroke="white" stroke-width="2.5" fill="none"/>
<path d="M316.9550807568877,240.7291281149714C326.9610907903835 246.50610070132427,331.60279062322934 251.14780053417016,337.3797632095822 261.1538105676659" stroke="hsl(180, 100%, 85%)" stroke-width="5.0" fill="none"/>
<path d="M316.9550807568877,240.7291281149714C326.9610907903835 246.50610070132427,331.60279062322934 251.14780053417016,337.3797632095822 261.1538105676659" stroke="white" stroke-width="2.5" fill="none"/>
<polygon points="289.0544456622768 239.05444566227683 267.40381056766586 251.55444566227683 245.75317547305488 264.05444566227686 245.75317547305488 289.05444566227686 270.75317547305485 289.05444566227686 283.25317547305485 310.7050807568878 304.9038105676658 298.2050807568878 326.55444566227675 310.7050807568878 339.05444566227675 289.05444566227686 326.55444566227675 267.4038105676659 348.2050807568877 254.90381056766591 348.2050807568877 229.90381056766591 323.2050807568877 229.90381056766591 310.7050807568877 251.55444566227686 289.05444566227675 239.05444566227686" stroke="black" fill="none"/>
<polygon points="326.5544456622768 192.40381056766586 348.20508075688775 204.90381056766586 348.20508075688775 229.90381056766586 373.20508075688775 229.90381056766586 385.70508075688775 251.55444566227683 407.3557158514987 239.05444566227683 407.3557158514987 214.05444566227683 432.3557158514987 214.05444566227683 444.8557158514987 192.40381056766586 423.20508075688775 179.90381056766586 401.5544456622768 192.40381056766586 389.0544456622768 170.75317547305488 364.0544456622768 170.75317547305488 339.0544456622768 170.75317547305488 326.5544456622768 192.40381056766583" stroke="none" fill="hsl(150, 100%, 85%)"/>
<path d="M348.20508075688775,217.40381056766586C363.80319827757666 217.40381056766586,392.96344678101946 232.9300693546269,379.45508075688775 240.72912811497133" stroke="hsl(150, 100%, 85%)" stroke-width="5.0" fill="none"/>
<path d="M348.20508075688775,217.40381056766586C363.80319827757666 217.40381056766586,392.96344678101946 232.9300693546269,379.45508075688775 240.72912811497133" stroke="white" stroke-width="2.5" fill="none"/>
<path d="M376.5544456622768,170.75317547305488C376.5544456622768 196.2482730410188,381.8606182835348 226.55444566227683,407.3557158514987 226.55444566227683" stroke="hsl(150, 100%, 85%)" stroke-width="5.0" fill="none"/>
<path d="M376.5544456622768,170.75317547305488C376.5544456622768 196.2482730410188,381.8606182835348 226.55444566227683,407.3557158514987 226.55444566227683" stroke="white" stroke-width="2.5" fill="none"/>
<path d="M434.0303983041932,186.15381056766586C430.49486439826046 192.2775349246238,432.48199149454075 199.69359420903862,438.6057158514987 203.22912811497133" stroke="hsl(150, 100%, 85%)" stroke-width="5.0" fill="none"/>
<path d="M434.0303983041932,186.15381056766586C430.49486439826046 192.2775349246238,432.48199149454075 199.69359420903862,438.6057158514987 203.22912811497133" stroke="white" stroke-width="2.5" fill="none"/>
<path d="M395.3044456622768,181.57849302036038C374.71575254813035 193.46538053207541,360.70508075688775 206.13003554423577,360.70508075688775 229.90381056766586" stroke="hsl(150, 100%, 85%)" stroke-width="5.0" fill="none"/>
<path d="M395.3044456622768,181.57849302036038C374.71575254813035 193.46538053207541,360.70508075688775 206.13003554423577,360.70508075688775 229.90381056766586" stroke="white" stroke-width="2.5" fill="none"/>
<path d="M332.8044456622768,181.57849302036038C364.023659131369 199.6029143206291,378.50597700392444 214.08523219318465,396.5303983041932 245.30444566227683" stroke="hsl(150, 100%, 85%)" stroke-width="5.0" fill="none"/>
<path d="M332.8044456622768,181.57849302036038C364.023659131369 199.6029143206291,378.50597700392444 214.08523219318465,396.5303983041932 245.30444566227683" stroke="white" stroke-width="2.5" fill="none"/>
<path d="M351.5544456622768,170.75317547305488C351.5544456622768 183.2711117970173,343.6387313715635 187.8129597081584,337.3797632095823 198.65381056766586" stroke="hsl(150, 100%, 85%)" stroke-width="5.0" fill="none"/>
<path d="M351.5544456622768,170.75317547305488C351.5544456622768 183.2711117970173,343.6387313715635 187.8129597081584,337.3797632095823 198.65381056766586" stroke="white" stroke-width="2.5" fill="none"/>
<path d="M412.3797632095823,186.15381056766586C418.15673579593516 196.1598206011616,419.8557158514987 202.5005004895711,419.8557158514987 214.05444566227683" stroke="hsl(150, 100%, 85%)" stroke-width="5.0" fill="none"/>
<path d="M412.3797632095823,186.15381056766586C418.15673579593516 196.1598206011616,419.8557158514987 202.5005004895711,419.8557158514987 214.05444566227683" stroke="white" stroke-width="2.5" fill="none"/>
<polygon points="326.5544456622768 192.40381056766586 348.20508075688775 204.90381056766586 348.20508075688775 229.90381056766586 373.20508075688775 229.90381056766586 385.70508075688775 251.55444566227683 407.3557158514987 239.05444566227683 407.3557158514987 214.05444566227683 432.3557158514987 214.05444566227683 444.8557158514987 192.40381056766586 423.20508075688775 179.90381056766586 401.5544456622768 192.40381056766586 389.0544456622768 170.75317547305488 364.0544456622768 170.75317547305488 339.0544456622768 170.75317547305488 326.5544456622768 192.40381056766583" stroke="black" fill="none"/>
<polygon points="348.2050807568877 229.90381056766591 348.2050807568877 254.90381056766591 326.55444566227675 267.4038105676659 339.05444566227675 289.05444566227686 326.55444566227675 310.7050807568878 348.2050807568877 323.2050807568878 369.85571585149864 310.7050807568878 382.35571585149864 332.35571585149876 407.35571585149864 332.35571585149876 407.35571585149864 307.35571585149876 385.7050807568877 294.85571585149876 398.2050807568877 273.2050807568878 385.7050807568877 251.55444566227683 373.2050807568877 229.90381056766586 348.2050807568877 229.90381056766586" stroke="none" fill="hsl(90, 100%, 85%)"/>
<path d="M337.3797632095822,261.1538105676659C345.1788219699267 274.6621765917976,346.31281168640845 307.6788219699268,332.80444566227675 299.87976320958234" stroke="hsl(90, 100%, 85%)" stroke-width="5.0" fill="none"/>
<path d="M337.3797632095822,261.1538105676659C345.1788219699267 274.6621765917976,346.31281168640845 307.6788219699268,332.80444566227675 299.87976320958234" stroke="white" stroke-width="2.5" fill="none"/>
<path d="M391.9550807568877,262.37976320958234C369.8756785910681 275.12731199356426,346.2828495202112 294.8756785910682,359.03039830419317 316.9550807568878" stroke="hsl(90, 100%, 85%)" stroke-width="5.0" fill="none"/>
<path d="M391.9550807568877,262.37976320958234C369.8756785910681 275.12731199356426,346.2828495202112 294.8756785910682,359.03039830419317 316.9550807568878" stroke="white" stroke-width="2.5" fill="none"/>
<path d="M407.35571585149864,319.85571585149876C400.28464803963317 319.85571585149876,394.85571585149864 325.2846480396333,394.85571585149864 332.35571585149876" stroke="hsl(90, 100%, 85%)" stroke-width="5.0" fill="none"/>
<path d="M407.35571585149864,319.85571585149876C400.28464803963317 319.85571585149876,394.85571585149864 325.2846480396333,394.85571585149864 332.35571585149876" stroke="white" stroke-width="2.5" fill="none"/>
<path d="M391.9550807568877,284.0303983041933C371.36638764274124 272.14351079247825,353.3931387764232 266.34224060325636,332.80444566227675 278.2291281149714" stroke="hsl(90, 100%, 85%)" stroke-width="5.0" fill="none"/>
<path d="M391.9550807568877,284.0303983041933C371.36638764274124 272.14351079247825,353.3931387764232 266.34224060325636,332.80444566227675 278.2291281149714" stroke="white" stroke-width="2.5" fill="none"/>
<path d="M360.7050807568877,229.9038105676659C360.70508075688775 265.9526531682034,355.404184509851 285.73586728779566,337.3797632095822 316.9550807568878" stroke="hsl(90, 100%, 85%)" stroke-width="5.0" fill="none"/>
<path d="M360.7050807568877,229.9038105676659C360.70508075688775 265.9526531682034,355.404184509851 285.73586728779566,337.3797632095822 316.9550807568878" stroke="white" stroke-width="2.5" fill="none"/>
<path d="M379.4550807568877,240.72912811497133C368.61422989738026 246.98809627695255,360.7230170808501 242.40381056766591,348.2050807568877 242.40381056766591" stroke="hsl(90, 100%, 85%)" stroke-width="5.0" fill="none"/>
<path d="M379.4550807568877,240.72912811497133C368.61422989738026 246.98809627695255,360.7230170808501 242.40381056766591,348.2050807568877 242.40381056766591" stroke="white" stroke-width="2.5" fill="none"/>
<path d="M396.53039830419317,301.10571585149876C390.7534257178403 311.11172588499454,386.1117258849944 315.7534257178404,376.10571585149864 321.5303983041933" stroke="hsl(90, 100%, 85%)" stroke-width="5.0" fill="none"/>
<path d="M396.53039830419317,301.10571585149876C390.7534257178403 311.11172588499454,386.1117258849944 315.7534257178404,376.10571585149864 321.5303983041933" stroke="white" stroke-width="2.5" fill="none"/>
<polygon points="348.2050807568877 229.90381056766591 348.2050807568877 254.90381056766591 326.55444566227675 267.4038105676659 339.05444566227675 289.05444566227686 326.55444566227675 310.7050807568878 348.2050807568877 323.2050807568878 369.85571585149864 310.7050807568878 382.35571585149864 332.35571585149876 407.35571585149864 332.35571585149876 407.35571585149864 307.35571585149876 385.7050807568877 294.85571585149876 398.2050807568877 273.2050807568878 385.7050807568877 251.55444566227683 373.2050807568877 229.90381056766586 348.2050807568877 229.90381056766586" stroke="black" fill="none"/>
<polygon points="149.1025403784439 239.95190528383293 127.45190528383293 227.45190528383293 105.80127018922197 239.95190528383293 93.30127018922197 218.30127018922195 68.30127018922197 218.30127018922195 43.30127018922197 218.30127018922195 30.801270189221967 239.95190528383293 52.45190528383293 252.45190528383293 52.45190528383293 277.45190528383296 77.45190528383293 277.45190528383296 89.95190528383293 299.1025403784439 111.6025403784439 286.6025403784439 111.6025403784439 261.6025403784439 136.6025403784439 261.6025403784439 149.1025403784439 239.95190528383293" stroke="none" fill="hsl(150, 100%, 85%)"/>
<path d="M52.45190528383293,264.95190528383296C68.05002280452183 264.95190528383296,97.21027130796465 280.478164070794,83.70190528383293 288.27722283113843" stroke="hsl(150, 100%, 85%)" stroke-width="5.0" fill="none"/>
<path d="M52.45190528383293,264.95190528383296C68.05002280452183 264.95190528383296,97.21027130796465 280.478164070794,83.70190528383293 288.27722283113843" stroke="white" stroke-width="2.5" fill="none"/>
<path d="M80.80127018922197,218.30127018922195C80.80127018922197 243.7963677571859,86.10744281047997 274.1025403784439,111.6025403784439 274.1025403784439" stroke="hsl(150, 100%, 85%)" stroke-width="5.0" fill="none"/>
<path d="M80.80127018922197,218.30127018922195C80.80127018922197 243.7963677571859,86.10744281047997 274.1025403784439,111.6025403784439 274.1025403784439" stroke="white" stroke-width="2.5" fill="none"/>
<path d="M138.27722283113843,233.70190528383293C134.74168892520566 239.82562964079088,136.72881602148595 247.24168892520566,142.8525403784439 250.77722283113843" stroke="hsl(150, 100%, 85%)" stroke-width="5.0" fill="none"/>
<path d="M138.27722283113843,233.70190528383293C134.74168892520566 239.82562964079088,136.72881602148595 247.24168892520566,142.8525403784439 250.77722283113843" stroke="white" stroke-width="2.5" fill="none"/>
<path d="M99.55127018922197,229.12658773652743C78.9625770750755 241.0134752482425,64.95190528383293 253.67813026040284,64.95190528383293 277.45190528383296" stroke="hsl(150, 100%, 85%)" stroke-width="5.0" fill="none"/>
<path d="M99.55127018922197,229.12658773652743C78.9625770750755 241.0134752482425,64.95190528383293 253.67813026040284,64.95190528383293 277.45190528383296" stroke="white" stroke-width="2.5" fill="none"/>
<path d="M37.05127018922197,229.12658773652743C68.27048365831416 247.1510090367962,82.75280153086966 261.6333269093517,100.77722283113842 292.8525403784439" stroke="hsl(150, 100%, 85%)" stroke-width="5.0" fill="none"/>
<path d="M37.05127018922197,229.12658773652743C68.27048365831416 247.1510090367962,82.75280153086966 261.6333269093517,100.77722283113842 292.8525403784439" stroke="white" stroke-width="2.5" fill="none"/>
<path d="M55.80127018922197,218.30127018922195C55.80127018922197 230.81920651318438,47.88555589850867 235.36105442432546,41.62658773652745 246.20190528383293" stroke="hsl(150, 100%, 85%)" stroke-width="5.0" fill="none"/>
<path d="M55.80127018922197,218.30127018922195C55.80127018922197 230.81920651318438,47.88555589850867 235.36105442432546,41.62658773652745 246.20190528383293" stroke="white" stroke-width="2.5" fill="none"/>
<path d="M116.62658773652745,233.70190528383293C122.40356032288032 243.70791531732868,124.1025403784439 250.04859520573817,124.1025403784439 261.6025403784439" stroke="hsl(150, 100%, 85%)" stroke-width="5.0" fill="none"/>
<path d="M116.62658773652745,233.70190528383293C122.40356032288032 243.70791531732868,124.1025403784439 250.04859520573817,124.1025403784439 261.6025403784439" stroke="white" stroke-width="2.5" fill="none"/>
<polygon points="149.1025403784439 239.95190528383293 127.45190528383293 227.45190528383293 105.80127018922197 239.95190528383293 93.30127018922197 218.30127018922195 68.30127018922197 218.30127018922195 43.30127018922197 218.30127018922195 30.801270189221967 239.95190528383293 52.45190528383293 252.45190528383293 52.45190528383293 277.45190528383296 77.45190528383293 277.45190528383296 89.95190528383293 299.1025403784439 111.6025403784439 286.6025403784439 111.6025403784439 261.6025403784439 136.6025403784439 261.6025403784439 149.1025403784439 239.95190528383293" stroke="black" fill="none"/>
<polygon points="111.6025403784439 261.6025403784439 111.6025403784439 286.6025403784439 89.95190528383294 299.1025403784439 102.45190528383294 320.75317547305485 89.95190528383294 342.4038105676658 111.6025403784439 354.9038105676658 133.25317547305488 342.4038105676658 145.75317547305488 364.05444566227675 170.75317547305488 364.05444566227675 170.75317547305488 339.05444566227675 149.10254037844393 326.55444566227675 161.60254037844393 304.9038105676658 149.10254037844393 283.25317547305485 136.60254037844393 261.6025403784439 111.60254037844393 261.6025403784439" stroke="none" fill="hsl(90, 100%, 85%)"/>
<path d="M100.77722283113843,292.8525403784439C108.57628159148287 306.3609064025756,109.71027130796466 339.3775517807048,96.20190528383294 331.5784930203603" stroke="hsl(90, 100%, 85%)" stroke-width="5.0" fill="none"/>
<path d="M100.77722283113843,292.8525403784439C108.57628159148287 306.3609064025756,109.71027130796466 339.3775517807048,96.20190528383294 331.5784930203603" stroke="white" stroke-width="2.5" fill="none"/>
<path d="M155.35254037844393,294.0784930203603C133.2731382126243 306.8260418043423,109.68030914176744 326.5744084018462,122.4278579257494 348.6538105676658" stroke="hsl(90, 100%, 85%)" stroke-width="5.0" fill="none"/>
<path d="M155.35254037844393,294.0784930203603C133.2731382126243 306.8260418043423,109.68030914176744 326.5744084018462,122.4278579257494 348.6538105676658" stroke="white" stroke-width="2.5" fill="none"/>
<path d="M170.75317547305488,351.55444566227675C163.6821076611894 351.55444566227675,158.25317547305488 356.9833778504113,158.25317547305488 364.05444566227675" stroke="hsl(90, 100%, 85%)" stroke-width="5.0" fill="none"/>
<path d="M170.75317547305488,351.55444566227675C163.6821076611894 351.55444566227675,158.25317547305488 356.9833778504113,158.25317547305488 364.05444566227675" stroke="white" stroke-width="2.5" fill="none"/>
<path d="M155.35254037844393,315.7291281149713C134.76384726429748 303.8422406032562,116.7905983979794 298.04097041403435,96.20190528383294 309.9278579257494" stroke="hsl(90, 100%, 85%)" stroke-width="5.0" fill="none"/>
<path d="M155.35254037844393,315.7291281149713C134.76384726429748 303.8422406032562,116.7905983979794 298.04097041403435,96.20190528383294 309.9278579257494" stroke="white" stroke-width="2.5" fill="none"/>
<path d="M124.10254037844392,261.6025403784439C124.10254037844392 297.6513829789814,118.80164413140719 317.43459709857365,100.77722283113843 348.6538105676658" stroke="hsl(90, 100%, 85%)" stroke-width="5.0" fill="none"/>
<path d="M124.10254037844392,261.6025403784439C124.10254037844392 297.6513829789814,118.80164413140719 317.43459709857365,100.77722283113843 348.6538105676658" stroke="white" stroke-width="2.5" fill="none"/>
<path d="M142.85254037844393,272.4278579257494C132.01168951893646 278.6868260877306,124.12047670240635 274.1025403784439,111.6025403784439 274.1025403784439" stroke="hsl(90, 100%, 85%)" stroke-width="5.0" fill="none"/>
<path d="M142.85254037844393,272.4278579257494C132.01168951893646 278.6868260877306,124.12047670240635 274.1025403784439,111.6025403784439 274.1025403784439" stroke="white" stroke-width="2.5" fill="none"/>
<path d="M159.9278579257494,332.80444566227675C154.15088533939652 342.81045569577253,149.50918550655064 347.4521555286184,139.50317547305488 353.2291281149713" stroke="hsl(90, 100%, 85%)" stroke-width="5.0" fill="none"/>
<path d="M159.9278579257494,332.80444566227675C154.15088533939652 342.81045569577253,149.50918550655064 347.4521555286184,139.50317547305488 353.2291281149713" stroke="white" stroke-width="2.5" fill="none"/>
<polygon points="111.6025403784439 261.6025403784439 111.6025403784439 286.6025403784439 89.95190528383294 299.1025403784439 102.45190528383294 320.75317547305485 89.95190528383294 342.4038105676658 111.6025403784439 354.9038105676658 133.25317547305488 342.4038105676658 145.75317547305488 364.05444566227675 170.75317547305488 364.05444566227675 170.75317547305488 339.05444566227675 149.10254037844393 326.55444566227675 161.60254037844393 304.9038105676658 149.10254037844393 283.25317547305485 136.60254037844393 261.6025403784439 111.60254037844393 261.6025403784439" stroke="black" fill="none"/>
<polygon points="149.10254037844393 326.55444566227675 170.7531754730549 339.05444566227675 192.4038105676659 326.55444566227675 204.9038105676659 348.2050807568877 229.9038105676659 348.2050807568877 254.9038105676659 348.2050807568877 267.40381056766586 326.55444566227675 245.7531754730549 314.05444566227675 245.7531754730549 289.05444566227675 220.7531754730549 289.05444566227675 208.2531754730549 267.4038105676658 186.60254037844393 279.9038105676658 186.60254037844393 304.9038105676658 161.60254037844393 304.9038105676658 149.10254037844393 326.55444566227675" stroke="none" fill="hsl(330, 100%, 85%)"/>
<path d="M245.7531754730549,301.55444566227675C230.155057952366 301.55444566227675,200.99480944892318 286.0281868753157,214.5031754730549 278.2291281149713" stroke="hsl(330, 100%, 85%)" stroke-width="5.0" fill="none"/>
<path d="M245.7531754730549,301.55444566227675C230.155057952366 301.55444566227675,200.99480944892318 286.0281868753157,214.5031754730549 278.2291281149713" stroke="white" stroke-width="2.5" fill="none"/>
<path d="M217.4038105676659,348.2050807568877C217.4038105676659 322.7099831889238,212.09763794640784 292.4038105676658,186.60254037844393 292.4038105676658" stroke="hsl(330, 100%, 85%)" stroke-width="5.0" fill="none"/>
<path d="M217.4038105676659,348.2050807568877C217.4038105676659 322.7099831889238,212.09763794640784 292.4038105676658,186.60254037844393 292.4038105676658" stroke="white" stroke-width="2.5" fill="none"/>
<path d="M159.92785792574944,332.80444566227675C163.46339183168215 326.6807213053188,161.47626473540188 319.26466202090404,155.35254037844393 315.7291281149713" stroke="hsl(330, 100%, 85%)" stroke-width="5.0" fill="none"/>
<path d="M159.92785792574944,332.80444566227675C163.46339183168215 326.6807213053188,161.47626473540188 319.26466202090404,155.35254037844393 315.7291281149713" stroke="white" stroke-width="2.5" fill="none"/>
<path d="M198.6538105676659,337.3797632095822C219.2425036818123 325.4928756978672,233.2531754730549 312.8282206857068,233.2531754730549 289.05444566227675" stroke="hsl(330, 100%, 85%)" stroke-width="5.0" fill="none"/>
<path d="M198.6538105676659,337.3797632095822C219.2425036818123 325.4928756978672,233.2531754730549 312.8282206857068,233.2531754730549 289.05444566227675" stroke="white" stroke-width="2.5" fill="none"/>
<path d="M261.15381056766586,337.3797632095822C229.9345970985737 319.3553419093135,215.4522792260182 304.87302403675795,197.42785792574944 273.6538105676658" stroke="hsl(330, 100%, 85%)" stroke-width="5.0" fill="none"/>
<path d="M261.15381056766586,337.3797632095822C229.9345970985737 319.3553419093135,215.4522792260182 304.87302403675795,197.42785792574944 273.6538105676658" stroke="white" stroke-width="2.5" fill="none"/>
<path d="M242.4038105676659,348.2050807568877C242.4038105676659 335.68714443292527,250.31952485837917 331.1452965217842,256.5784930203604 320.30444566227675" stroke="hsl(330, 100%, 85%)" stroke-width="5.0" fill="none"/>
<path d="M242.4038105676659,348.2050807568877C242.4038105676659 335.68714443292527,250.31952485837917 331.1452965217842,256.5784930203604 320.30444566227675" stroke="white" stroke-width="2.5" fill="none"/>
<path d="M181.57849302036038,332.80444566227675C175.80152043400753 322.798435628781,174.10254037844393 316.45775574037157,174.10254037844393 304.9038105676658" stroke="hsl(330, 100%, 85%)" stroke-width="5.0" fill="none"/>
<path d="M181.57849302036038,332.80444566227675C175.80152043400753 322.798435628781,174.10254037844393 316.45775574037157,174.10254037844393 304.9038105676658" stroke="white" stroke-width="2.5" fill="none"/>
<polygon points="149.10254037844393 326.55444566227675 170.7531754730549 339.05444566227675 192.4038105676659 326.55444566227675 204.9038105676659 348.2050807568877 229.9038105676659 348.2050807568877 254.9038105676659 348.2050807568877 267.40381056766586 326.55444566227675 245.7531754730549 314.05444566227675 245.7531754730549 289.05444566227675 220.7531754730549 289.05444566227675 208.2531754730549 267.4038105676658 186.60254037844393 279.9038105676658 186.60254037844393 304.9038105676658 161.60254037844393 304.9038105676658 149.10254037844393 326.55444566227675" stroke="black" fill="none"/>
<polygon points="245.75317547305488 289.0544456622768 245.75317547305488 314.0544456622768 267.40381056766586 326.5544456622768 254.90381056766586 348.20508075688775 267.40381056766586 369.8557158514987 279.90381056766586 391.50635094610965 304.90381056766586 391.50635094610965 304.90381056766586 366.50635094610965 326.5544456622768 354.00635094610965 314.0544456622768 332.3557158514987 326.5544456622768 310.70508075688775 304.90381056766586 298.20508075688775 283.2531754730549 310.70508075688775 270.7531754730549 289.0544456622768 245.7531754730549 289.0544456622768" stroke="none" fill="hsl(270, 100%, 85%)"/>
<path d="M315.72912811497133,360.25635094610965C307.9300693546269 346.74798492197795,306.7960796381451 313.7313395438488,320.3044456622768 321.5303983041932" stroke="hsl(270, 100%, 85%)" stroke-width="5.0" fill="none"/>
<path d="M315.72912811497133,360.25635094610965C307.9300693546269 346.74798492197795,306.7960796381451 313.7313395438488,320.3044456622768 321.5303983041932" stroke="white" stroke-width="2.5" fill="none"/>
<path d="M261.15381056766586,359.0303983041932C283.23321273348546 346.28284952021124,306.82604180434237 326.53448292270735,294.0784930203604 304.45508075688775" stroke="hsl(270, 100%, 85%)" stroke-width="5.0" fill="none"/>
<path d="M261.15381056766586,359.0303983041932C283.23321273348546 346.28284952021124,306.82604180434237 326.53448292270735,294.0784930203604 304.45508075688775" stroke="white" stroke-width="2.5" fill="none"/>
<path d="M245.75317547305488,301.5544456622768C252.82424328492036 301.5544456622768,258.2531754730549 296.1255134741423,258.2531754730549 289.0544456622768" stroke="hsl(270, 100%, 85%)" stroke-width="5.0" fill="none"/>
<path d="M245.75317547305488,301.5544456622768C252.82424328492036 301.5544456622768,258.2531754730549 296.1255134741423,258.2531754730549 289.0544456622768" stroke="white" stroke-width="2.5" fill="none"/>
<path d="M261.15381056766586,337.3797632095823C281.7425036818123 349.2666507212973,299.71575254813035 355.0679209105192,320.3044456622768 343.1810333988042" stroke="hsl(270, 100%, 85%)" stroke-width="5.0" fill="none"/>
<path d="M261.15381056766586,337.3797632095823C281.7425036818123 349.2666507212973,299.71575254813035 355.0679209105192,320.3044456622768 343.1810333988042" stroke="white" stroke-width="2.5" fill="none"/>
<path d="M292.40381056766586,391.50635094610965C292.40381056766586 355.45750834557214,297.70470681470255 335.6742942259799,315.72912811497133 304.45508075688775" stroke="hsl(270, 100%, 85%)" stroke-width="5.0" fill="none"/>
<path d="M292.40381056766586,391.50635094610965C292.40381056766586 355.45750834557214,297.70470681470255 335.6742942259799,315.72912811497133 304.45508075688775" stroke="white" stroke-width="2.5" fill="none"/>
<path d="M273.65381056766586,380.6810333988042C284.4946614271733 374.42206523682296,292.3858742437034 379.00635094610965,304.90381056766586 379.00635094610965" stroke="hsl(270, 100%, 85%)" stroke-width="5.0" fill="none"/>
<path d="M273.65381056766586,380.6810333988042C284.4946614271733 374.42206523682296,292.3858742437034 379.00635094610965,304.90381056766586 379.00635094610965" stroke="white" stroke-width="2.5" fill="none"/>
<path d="M256.5784930203604,320.3044456622768C262.35546560671327 310.298435628781,266.9971654395591 305.65673579593516,277.0031754730549 299.8797632095823" stroke="hsl(270, 100%, 85%)" stroke-width="5.0" fill="none"/>
<path d="M256.5784930203604,320.3044456622768C262.35546560671327 310.298435628781,266.9971654395591 305.65673579593516,277.0031754730549 299.8797632095823" stroke="white" stroke-width="2.5" fill="none"/>
<polygon points="245.75317547305488 289.0544456622768 245.75317547305488 314.0544456622768 267.40381056766586 326.5544456622768 254.90381056766586 348.20508075688775 267.40381056766586 369.8557158514987 279.90381056766586 391.50635094610965 304.90381056766586 391.50635094610965 304.90381056766586 366.50635094610965 326.5544456622768 354.00635094610965 314.0544456622768 332.3557158514987 326.5544456622768 310.70508075688775 304.90381056766586 298.20508075688775 283.2531754730549 310.70508075688775 270.7531754730549 289.0544456622768 245.7531754730549 289.0544456622768" stroke="black" fill="none"/>
<polygon points="326.55444566227675 310.7050807568878 314.05444566227675 332.35571585149876 326.55444566227675 354.0063509461097 304.9038105676658 366.5063509461097 304.9038105676658 391.5063509461097 329.9038105676658 391.5063509461097 342.4038105676658 369.85571585149876 364.05444566227675 382.35571585149876 385.7050807568877 369.85571585149876 407.35571585149864 357.35571585149876 407.35571585149864 332.35571585149876 382.35571585149864 332.35571585149876 369.85571585149864 310.7050807568878 348.2050807568877 323.2050807568878 326.55444566227675 310.7050807568878" stroke="none" fill="hsl(0, 100%, 85%)"/>
<path d="M376.10571585149864,321.5303983041933C362.59734982736694 329.32945706453773,329.58070444923777 330.4634467810195,337.3797632095822 316.9550807568878" stroke="hsl(0, 100%, 85%)" stroke-width="5.0" fill="none"/>
<path d="M376.10571585149864,321.5303983041933C362.59734982736694 329.32945706453773,329.58070444923777 330.4634467810195,337.3797632095822 316.9550807568878" stroke="white" stroke-width="2.5" fill="none"/>
<path d="M374.8797632095822,376.10571585149876C362.13221442560024 354.02631368567916,342.38384782809635 330.43348461482225,320.30444566227675 343.18103339880423" stroke="hsl(0, 100%, 85%)" stroke-width="5.0" fill="none"/>
<path d="M374.8797632095822,376.10571585149876C362.13221442560024 354.02631368567916,342.38384782809635 330.43348461482225,320.30444566227675 343.18103339880423" stroke="white" stroke-width="2.5" fill="none"/>
<path d="M317.4038105676658,391.5063509461097C317.4038105676658 384.43528313424423,311.9748783795313 379.0063509461097,304.9038105676658 379.0063509461097" stroke="hsl(0, 100%, 85%)" stroke-width="5.0" fill="none"/>
<path d="M317.4038105676658,391.5063509461097C317.4038105676658 384.43528313424423,311.9748783795313 379.0063509461097,304.9038105676658 379.0063509461097" stroke="white" stroke-width="2.5" fill="none"/>
<path d="M353.2291281149713,376.10571585149876C365.1160156266863 355.5170227373523,370.9172858159082 337.54377387103426,359.03039830419317 316.9550807568878" stroke="hsl(0, 100%, 85%)" stroke-width="5.0" fill="none"/>
<path d="M353.2291281149713,376.10571585149876C365.1160156266863 355.5170227373523,370.9172858159082 337.54377387103426,359.03039830419317 316.9550807568878" stroke="white" stroke-width="2.5" fill="none"/>
<path d="M407.35571585149864,344.85571585149876C371.30687325096113 344.85571585149876,351.5236591313689 339.55481960446207,320.30444566227675 321.5303983041933" stroke="hsl(0, 100%, 85%)" stroke-width="5.0" fill="none"/>
<path d="M407.35571585149864,344.85571585149876C371.30687325096113 344.85571585149876,351.5236591313689 339.55481960446207,320.30444566227675 321.5303983041933" stroke="white" stroke-width="2.5" fill="none"/>
<path d="M396.53039830419317,363.60571585149876C390.27143014221195 352.7648649919913,394.85571585149864 344.8736521754612,394.85571585149864 332.35571585149876" stroke="hsl(0, 100%, 85%)" stroke-width="5.0" fill="none"/>
<path d="M396.53039830419317,363.60571585149876C390.27143014221195 352.7648649919913,394.85571585149864 344.8736521754612,394.85571585149864 332.35571585149876" stroke="white" stroke-width="2.5" fill="none"/>
<path d="M336.1538105676658,380.68103339880423C326.14780053417 374.90406081245135,321.50610070132416 370.2623609796055,315.7291281149713 360.2563509461097" stroke="hsl(0, 100%, 85%)" stroke-width="5.0" fill="none"/>
<path d="M336.1538105676658,380.68103339880423C326.14780053417 374.90406081245135,321.50610070132416 370.2623609796055,315.7291281149713 360.2563509461097" stroke="white" stroke-width="2.5" fill="none"/>
<polygon points="326.55444566227675 310.7050807568878 314.05444566227675 332.35571585149876 326.55444566227675 354.0063509461097 304.9038105676658 366.5063509461097 304.9038105676658 391.5063509461097 329.9038105676658 391.5063509461097 342.4038105676658 369.85571585149876 364.05444566227675 382.35571585149876 385.7050807568877 369.85571585149876 407.35571585149864 357.35571585149876 407.35571585149864 332.35571585149876 382.35571585149864 332.35571585149876 369.85571585149864 310.7050807568878 348.2050807568877 323.2050807568878 326.55444566227675 310.7050807568878" stroke="black" fill="none"/>
<polygon points="299.1025403784439 89.95190528383289 320.75317547305485 102.45190528383289 342.4038105676658 89.95190528383289 354.9038105676658 111.60254037844385 379.9038105676658 111.60254037844385 379.9038105676658 86.60254037844385 358.25317547305485 74.10254037844383 370.75317547305485 52.451905283832865 358.25317547305485 30.8012701892219 345.75317547305485 9.150635094610934 320.75317547305485 9.150635094610928 320.75317547305485 34.15063509461093 299.1025403784439 46.650635094610934 311.6025403784439 68.30127018922191 299.1025403784439 89.95190528383287" stroke="none" fill="hsl(90, 100%, 85%)"/>
<path d="M309.9278579257494,40.400635094610934C317.72691668609383 53.90900111874266,318.86090640257567 86.92564649687185,305.3525403784439 79.1265877365274" stroke="hsl(90, 100%, 85%)" stroke-width="5.0" fill="none"/>
<path d="M309.9278579257494,40.400635094610934C317.72691668609383 53.90900111874266,318.86090640257567 86.92564649687185,305.3525403784439 79.1265877365274" stroke="white" stroke-width="2.5" fill="none"/>
<path d="M364.50317547305485,41.626587736527384C342.42377330723525 54.37413652050935,318.83094423637834 74.12250311801327,331.5784930203603 96.20190528383289" stroke="hsl(90, 100%, 85%)" stroke-width="5.0" fill="none"/>
<path d="M364.50317547305485,41.626587736527384C342.42377330723525 54.37413652050935,318.83094423637834 74.12250311801327,331.5784930203603 96.20190528383289" stroke="white" stroke-width="2.5" fill="none"/>
<path d="M379.9038105676658,99.10254037844385C372.8327427558003 99.10254037844385,367.4038105676658 104.53147256657837,367.4038105676658 111.60254037844385" stroke="hsl(90, 100%, 85%)" stroke-width="5.0" fill="none"/>
<path d="M379.9038105676658,99.10254037844385C372.8327427558003 99.10254037844385,367.4038105676658 104.53147256657837,367.4038105676658 111.60254037844385" stroke="white" stroke-width="2.5" fill="none"/>
<path d="M364.50317547305485,63.277222831138346C343.9144823589084 51.39033531942331,325.94123349259036 45.589065130201384,305.3525403784439 57.47595264191642" stroke="hsl(90, 100%, 85%)" stroke-width="5.0" fill="none"/>
<path d="M364.50317547305485,63.277222831138346C343.9144823589084 51.39033531942331,325.94123349259036 45.589065130201384,305.3525403784439 57.47595264191642" stroke="white" stroke-width="2.5" fill="none"/>
<path d="M333.25317547305485,9.15063509461093C333.25317547305485 45.19947769514847,327.95227922601816 64.9826918147407,309.9278579257494 96.20190528383289" stroke="hsl(90, 100%, 85%)" stroke-width="5.0" fill="none"/>
<path d="M333.25317547305485,9.15063509461093C333.25317547305485 45.19947769514847,327.95227922601816 64.9826918147407,309.9278579257494 96.20190528383289" stroke="white" stroke-width="2.5" fill="none"/>
<path d="M352.00317547305485,19.975952641916415C341.1623246135474 26.234920803897634,333.2711117970173 21.650635094610927,320.75317547305485 21.650635094610927" stroke="hsl(90, 100%, 85%)" stroke-width="5.0" fill="none"/>
<path d="M352.00317547305485,19.975952641916415C341.1623246135474 26.234920803897634,333.2711117970173 21.650635094610927,320.75317547305485 21.650635094610927" stroke="white" stroke-width="2.5" fill="none"/>
<path d="M369.0784930203603,80.35254037844385C363.30152043400744 90.3585504119396,358.6598206011616 95.00025024478549,348.6538105676658 100.77722283113837" stroke="hsl(90, 100%, 85%)" stroke-width="5.0" fill="none"/>
<path d="M369.0784930203603,80.35254037844385C363.30152043400744 90.3585504119396,358.6598206011616 95.00025024478549,348.6538105676658 100.77722283113837" stroke="white" stroke-width="2.5" fill="none"/>
<polygon points="299.1025403784439 89.95190528383289 320.75317547305485 102.45190528383289 342.4038105676658 89.95190528383289 354.9038105676658 111.60254037844385 379.9038105676658 111.60254037844385 379.9038105676658 86.60254037844385 358.25317547305485 74.10254037844383 370.75317547305485 52.451905283832865 358.25317547305485 30.8012701892219 345.75317547305485 9.150635094610934 320.75317547305485 9.150635094610928 320.75317547305485 34.15063509461093 299.1025403784439 46.650635094610934 311.6025403784439 68.30127018922191 299.1025403784439 89.95190528383287" stroke="black" fill="none"/>
<polygon points="385.7050807568877 251.55444566227683 398.2050807568877 273.2050807568878 385.7050807568877 294.85571585149876 407.35571585149864 307.35571585149876 429.0063509461096 294.85571585149876 441.5063509461096 316.5063509461097 466.5063509461096 316.5063509461097 466.5063509461096 291.5063509461097 444.85571585149864 279.0063509461097 457.35571585149864 257.35571585149876 444.85571585149864 235.70508075688778 432.35571585149864 214.0544456622768 407.35571585149864 214.0544456622768 407.35571585149864 239.0544456622768 385.7050807568877 251.5544456622768" stroke="none" fill="hsl(90, 100%, 85%)"/>
<path d="M396.53039830419317,245.3044456622768C404.3294570645376 258.81281168640857,405.46344678101946 291.82945706453773,391.9550807568877 284.0303983041933" stroke="hsl(90, 100%, 85%)" stroke-width="5.0" fill="none"/>
<path d="M396.53039830419317,245.3044456622768C404.3294570645376 258.81281168640857,405.46344678101946 291.82945706453773,391.9550807568877 284.0303983041933" stroke="white" stroke-width="2.5" fill="none"/>
<path d="M451.10571585149864,246.53039830419328C429.02631368567904 259.2779470881752,405.43348461482213 279.02631368567916,418.1810333988041 301.10571585149876" stroke="hsl(90, 100%, 85%)" stroke-width="5.0" fill="none"/>
<path d="M451.10571585149864,246.53039830419328C429.02631368567904 259.2779470881752,405.43348461482213 279.02631368567916,418.1810333988041 301.10571585149876" stroke="white" stroke-width="2.5" fill="none"/>
<path d="M466.5063509461096,304.0063509461097C459.4352831342441 304.0063509461097,454.0063509461096 309.43528313424423,454.0063509461096 316.5063509461097" stroke="hsl(90, 100%, 85%)" stroke-width="5.0" fill="none"/>
<path d="M466.5063509461096,304.0063509461097C459.4352831342441 304.0063509461097,454.0063509461096 309.43528313424423,454.0063509461096 316.5063509461097" stroke="white" stroke-width="2.5" fill="none"/>
<path d="M451.10571585149864,268.18103339880423C430.5170227373522 256.2941458870892,412.54377387103415 250.49287569786728,391.9550807568877 262.37976320958234" stroke="hsl(90, 100%, 85%)" stroke-width="5.0" fill="none"/>
<path d="M451.10571585149864,268.18103339880423C430.5170227373522 256.2941458870892,412.54377387103415 250.49287569786728,391.9550807568877 262.37976320958234" stroke="white" stroke-width="2.5" fill="none"/>
<path d="M419.85571585149864,214.0544456622768C419.85571585149864 250.10328826281435,414.55481960446195 269.88650238240655,396.53039830419317 301.10571585149876" stroke="hsl(90, 100%, 85%)" stroke-width="5.0" fill="none"/>
<path d="M419.85571585149864,214.0544456622768C419.85571585149864 250.10328826281435,414.55481960446195 269.88650238240655,396.53039830419317 301.10571585149876" stroke="white" stroke-width="2.5" fill="none"/>
<path d="M438.60571585149864,224.87976320958228C427.7648649919912 231.1387313715635,419.8736521754611 226.5544456622768,407.35571585149864 226.5544456622768" stroke="hsl(90, 100%, 85%)" stroke-width="5.0" fill="none"/>
<path d="M438.60571585149864,224.87976320958228C427.7648649919912 231.1387313715635,419.8736521754611 226.5544456622768,407.35571585149864 226.5544456622768" stroke="white" stroke-width="2.5" fill="none"/>
<path d="M455.6810333988041,285.2563509461097C449.90406081245123 295.2623609796055,445.2623609796054 299.90406081245135,435.2563509461096 305.68103339880423" stroke="hsl(90, 100%, 85%)" stroke-width="5.0" fill="none"/>
<path d="M455.6810333988041,285.2563509461097C449.90406081245123 295.2623609796055,445.2623609796054 299.90406081245135,435.2563509461096 305.68103339880423" stroke="white" stroke-width="2.5" fill="none"/>
<polygon points="385.7050807568877 251.55444566227683 398.2050807568877 273.2050807568878 385.7050807568877 294.85571585149876 407.35571585149864 307.35571585149876 429.0063509461096 294.85571585149876 441.5063509461096 316.5063509461097 466.5063509461096 316.5063509461097 466.5063509461096 291.5063509461097 444.85571585149864 279.0063509461097 457.35571585149864 257.35571585149876 444.85571585149864 235.70508075688778 432.35571585149864 214.0544456622768 407.35571585149864 214.0544456622768 407.35571585149864 239.0544456622768 385.7050807568877 251.5544456622768" stroke="black" fill="none"/>
</svg>