<svg version="1" xmlns="http://www.w3.org/2000/svg" width="3722.667" height="3722.667" viewBox="0 0 2792.000000 2792.000000"><path d="M1231.7 168.1L1204 182l-16-10-16.1-10-11.8 7.9c-6.5 4.4-21.8 16.1-34 26.1-26 21.2-59.6 43.4-105.9 69.9-19 10.9-36.9 22.1-54 34-17.2 11.9-35.1 23.2-54.1 34.1-19.7 11.2-43.3 26.1-76.2 48.1-47.8 31.8-47.8 31.9-79.8 47.9l-32 16-31.8 23.3c-71.4 52.3-113.9 81.9-137.2 95.3-20.9 12.1-23.4 13.8-38.8 27.4l-16.5 14.5-17.9 31.8-17.8 31.7-9.7 31.3c-5.3 17.1-10.2 31.7-10.8 32.4-.6.6-8.9 4.6-18.4 8.8-16.5 7.3-18.5 8.5-39.3 23.6l-21.9 16-17.6 25.5c-9.7 14-18.8 26.3-20.2 27.2-1.4.9-14.1 8.3-28.1 16.3l-25.6 14.5-25.2 31.4c-20.5 25.6-29 35.2-46.1 52.4l-21 21.1 6 31.8c3.3 17.5 5.8 32 5.6 32.1-.2.1-7.4 6.5-16.1 14.1l-15.9 13.8-15.9 31.9c-10 20-16.4 31.8-17.2 31.5-.7-.2-6.4-1.9-12.7-3.6-6.3-1.8-12.1-3.4-12.8-3.6-1.6-.6-48.8 38.7-49.6 41.2-1.7 6-10.5 39.1-10.8 40.7-.2 1.4 5 5.4 23.7 18l24 16.1 13.8 17.8 13.8 17.8-8 24.2-8.1 24.3-20.8 20.5c-11.4 11.3-30.1 29-41.5 39.4-11.4 10.3-21.2 19.5-21.7 20.5-.5.9-4.3 11-8.4 22.3l-7.5 20.6 10 22.1 10 22.1-1.6 19.2c-.8 10.6-1.8 21.3-2.1 23.8l-.6 4.7 23.9 19.7c13.1 10.9 23.9 19.9 24.1 20.1.2.1-.6 15.6-1.7 34.3L60 1642l2.1 34 2 34.1 22 36 22 35.9 20.4 44.8c16.9 37 24.1 51.4 41.8 83.7l21.5 39 27.3 23.2c20.8 17.7 36.2 32.1 64.8 60.5l37.6 37.3 29.5 22 29.5 21.9 25.8 27.8 25.8 27.8 39.7 27.7 39.7 27.8 12.3 24.3L536 2274l41.8 31.4 41.7 31.4 32.2 32.3c32.1 32.4 32.1 32.4 60.5 69l28.3 36.5 19.5 37.3 19.5 37.3 30.6 28.7 30.6 28.6 37.9 15.7 37.9 15.8 27.5-2 27.5-2 18.4-8.1 18.3-8.1 28.6-22.5c29-22.9 45.8-37.4 88-76.1 22.9-21 23.6-21.9 45.2-49.2l21.9-27.9 12-40.3 12.1-40.3 2-39.5 2-39.5-8-46.1-8-46-16-49.9-15.9-49.9-18.3-18.3-18.3-18.3-18-4c-9.9-2.2-34-6.7-53.6-10l-35.6-5.9-32.4-12.1c-17.8-6.7-46.7-18.4-64.2-26.1l-31.8-13.9-26.1-20.1c-14.4-11-39.7-30-56.2-42.2l-30.1-22.1-17.9-19.8-17.8-19.9-11.9-29.7-11.9-29.7-2.1-34.2-2-34.3 14.1-36.2 14.2-36.3 21.6-27.5 21.7-27.5 36-24.2 36-24.2 24.2-8.1 24.3-8.2 26.1 8.1 26.1 8 17.9-4 18-4.1 31.9-21.9 32-22 36.1 2 36 2 38 18 37.9 18 31.9 27.8 31.9 27.8 32.1 76.3 32.2 76.2 34.2 50.3c36.5 53.6 34.6 51.2 142.9 188.5l38.9 49.2 30.1 50.1 30 50.1 20.8 45.6c11.9 26.2 36.5 77.3 57.8 119.7l37 74 40.5 40.4 40.4 40.3 79.6 33.8 79.6 33.9 44.8 4c41.6 3.8 47.2 4.1 78.1 4.1h33.2l31.8-8c17.4-4.3 40.7-10.6 51.6-13.9 16.4-4.9 20.4-6.5 23-9 1.7-1.7 11.7-12.4 22.1-23.9l19-20.8 26.5-17.6c35.2-23.4 71.2-43.8 104.2-59 24.6-11.4 28.7-13.7 63.8-35.9l37.5-23.6 14.1-21.9c13.5-21.1 14.3-22.2 23-29.2 4.9-4 16.6-14.9 25.9-24.2l17-17 28.4-6.1 28.4-6.1 19.5-15.7c10.7-8.6 31.4-23.9 46-34.1l26.5-18.5 21.8-33.7 21.8-33.8 4-35.9 4.1-36-10-41.8c-10.9-45.5-17.1-65.5-44.7-144.3l-13.5-38.4-15.9-19.7c-13.6-16.9-18.3-21.9-33.1-35.1-9.5-8.5-25.6-22.1-35.8-30.2-10.2-8.1-26.6-21.8-36.6-30.4l-18.1-15.7-22.1-30.2c-12.2-16.6-30.2-40-40.1-52l-17.9-21.9-13-25.9c-26-52.1-34.4-71.6-43.3-100.7-7.1-23-9.2-28.4-16.9-43.8-4.8-9.6-11.9-24.8-15.9-33.6l-7.1-16.2v-22.9c0-15.6.6-28.9 2-42l1.9-19-5.9-21.8c-3.3-12-6.1-21.9-6.3-22.2-.2-.2-11.1-3.9-24.1-8.3l-23.7-7.9-23.7 2c-45.1 3.7-52.8 5-84.1 13.9l-28.1 8-37.9 26c-33.3 22.7-42.2 28.3-73.3 45.6-19.4 10.8-35.6 19.9-36 20.2-.4.4-1.6 14.1-2.7 30.4l-2 29.6 7.9 43.7c6.2 34 8.8 51.5 12 79.7 2.2 19.9 3.8 36.3 3.6 36.5-.2.3-12.8 1.3-28 2.4l-27.6 2-54.3-4c-49-3.7-68.9-5.7-169.2-17.2-9.9-1.1-29.7-3.6-44-5.5-31.7-4.3-93.6-12.6-113.8-15.4l-14.7-2-49.8-20.4c-93.8-38.4-191.6-80.6-269.8-116.3l-17.1-7.8-36-38-36-38-13.2-7.5c-7.2-4-13.1-7.7-13.1-8.1 0-.5 86.3-68.4 191.8-150.9 187.6-147 192.1-150.6 209.3-167.6l17.5-17.5 11 1.7c10.4 1.5 46.1 12.2 49.2 14.7 3.9 3.1 42.1 54.6 55.9 75.3l16.1 24.1 22.1 20.1c14.8 13.5 30 26.1 45.9 38l23.7 17.8 28.2 10.2 28.2 10.1 34.2-4 34.2-4.1 19.8-15.9c18.2-14.6 19.9-16.2 21-20.1.6-2.4 3.3-12.4 6-22.3l4.9-18v-19.4c0-17-.5-23.1-4.1-50-5-37.2-10.7-61.8-23.6-100.5l-8.6-25.9-11.9-19.9-11.9-19.8 2-13.6c1.1-7.5 2.1-13.8 2.4-14 .5-.5 26.7 3.3 27.4 4 .5.5 4.3 20.7 4.3 22.8 0 1.3 35.9 24.7 50.5 32.9l6 3.4-4.1-5c-9.3-11.1-18.9-28-34.1-60-3.4-7.2-6.7-15-7.4-17.5-1.9-7.3-1.6-17.7.9-25.7 4.1-13.3 9.9-17.2 26.9-18.1 23-1.1 55.7 9.2 73.8 23.2 9.1 7.1 32.5 33.7 50.2 57.1 13.6 18 26.2 41.9 37.3 71 3.9 10.4 7.5 19.6 7.9 20.3.4.7 3.1 2.4 6 3.7 4.5 2.2 5.2 2.2 4.7.7-.3-.9-2.8-12.3-5.6-25.2-2.7-12.9-6.8-29.8-9-37.5-3.7-12.9-4-14.9-4-26.3V786l-6-12-6-12-24.8-12.4c-13.6-6.8-31.5-16.7-39.9-21.9-14-8.8-16.9-10.2-37.3-17.6l-22.2-8.1h-51.6l-14 6c-12.7 5.4-15.5 6.2-28.1 8.1-13.6 1.9-14.8 2.3-32.1 10l-18.1 8-24.4-6c-13.5-3.4-35.1-7.9-48-10.1l-23.5-3.9-16.2 2.9c-9 1.5-24.4 4.3-34.3 6l-18 3.3-27.7 13.8-27.6 13.8-60.4 56.3c-33.1 31-65 60.2-70.8 64.8-21.9 17.8-180.1 146.8-192.5 157-12 9.8-72.8 59.4-119.5 97.5-10.7 8.7-35 28.5-53.9 43.9-18.9 15.5-34.6 28.1-34.9 28.1-.3 0-6-12.8-12.7-28.5-10.6-25-13.1-31.8-19.8-55.5l-7.7-27V969.4l6-41.8 6-41.8 7.6-13.4c4.2-7.4 8.1-13.7 8.6-14 .5-.3 13.1-2.4 28-4.5 14.8-2.1 27.5-4.2 28.1-4.6.7-.4 7.2-5.8 14.5-12.1 11.6-10 45.2-45.6 45.2-48 0-.4 1.8-14.7 4-31.9l3.9-31.2 9.7-23.3c5.3-12.8 15.2-38 22-56.1l12.3-32.7-4-34-4-34 4-14.1c2.2-7.8 4.2-14.2 4.3-14.3.7-.4 31.6-28.2 35.4-31.9l4.2-3.9 5.7 7.6c3.2 4.2 6 7.6 6.4 7.6.4 0 4.1-3.5 8.3-7.8l7.7-7.7-4-17.8-4-17.7 15.3-17.1c8.4-9.5 20.1-23.8 25.9-31.8l10.5-14.6 18.1-.5 18-.5-3-8c-1.6-4.4-7.8-20.4-13.8-35.5-5.9-15.1-13.8-37.2-17.4-49-3.6-11.8-10.9-34.3-16.1-50l-9.4-28.5-16.3-16.3-16.2-16.2-21.6-3.9-21.7-4-16.1-8-16.1-8.1-20.2.1h-20.3l-27.8 14zM1846.4 748c15.9 2.3 21.9 4.5 47.6 17.2l18.5 9.1 13.6 15.6c28.2 32.3 41.7 54.8 52.2 86.6 10.2 30.6 15.1 57.4 20.2 109.5 1.6 15.8 1.6 17.4-.4 38.2l-2 21.7-9 13.3c-5.9 8.8-11.9 16.3-17.8 22l-8.8 8.8-18.2 4-18.2 4.1-21.9-4-22-4-16.2-8.1c-15.4-7.7-17.3-9-37.9-25.8l-21.7-17.7-20.2-28.2c-18.1-25.2-21.9-31.3-35.6-56.5-8.4-15.6-19.9-36-25.6-45.3-5.6-9.4-14-24.6-18.6-33.8l-8.5-16.8-4-27.9-4-28 8.3-12.2 8.3-12.3 17.5-9.7c15.5-8.6 19.3-10.2 31.9-13.8 27.1-7.8 64-10.2 92.5-6zm521.7 552.4l4 9.8-4 14-4 14 4.1 8.1c2.2 4.5 6.6 11.6 9.8 15.7 3.2 4.2 10.4 15.9 16.1 26.1 5.6 10.1 12.9 21.9 16.2 26.2l5.9 7.8 8 28.2c6.9 24.1 8.6 29 12 33.9l3.9 5.8h15.8l5.9 7.8c12.3 16 18.2 33.1 18.2 52.1v8.6l-7.7 7.7c-7.4 7.3-8.5 8-22.1 13.8-7.8 3.3-18.7 8.8-24.2 12.1-9 5.5-11.3 6.3-25.9 9.9-15.3 3.8-16.8 4-31.8 4-13.7 0-25.8 1.2-37.5 3.6l-2.7.5 7.9 15.9 7.9 15.8 14.1 8.1c19 10.8 49.4 22 76.2 28 12.9 2.9 29.7 7.9 54.3 16.1 31.6 10.5 37.4 12.2 49.9 14l14.1 2 13.5 13.4c7.4 7.3 16.3 15.4 19.8 18 3.4 2.6 6.2 4.9 6.2 5.1 0 .4-2.8 14-3.5 17.3-.4 1.6-3.5 3.7-12.6 8.3-11.1 5.5-13.9 6.4-32.3 10.5-11 2.5-30.8 7-43.8 10l-23.6 5.4H2352l-12-10c-7.3-6-16.5-15-23.2-22.7-6.1-7.1-16.8-18.7-23.8-25.8-7-7.2-15.5-16.7-18.9-21.2-6.1-8.1-6.3-8.3-25.7-20-11.2-6.7-20-12.6-20.5-13.8-.5-1.1-2.5-8.5-4.4-16.4l-3.6-14.3 2-17.7 2.1-17.8-6-17.7c-5.5-16.4-6.1-19.2-8-35.9-1.1-10-3.8-28.1-6-40.2-2.2-12.1-4.9-30.1-6-40-1.5-13.4-3.1-21.6-6-32-2.2-7.7-4.9-20.4-6-28.3l-2.1-14.3 9.2-10.7c5-5.9 18.4-21.1 29.8-33.8 19.2-21.5 21.8-24 38.8-37.2l18.2-14.2 22-10 21.9-10.1 17.3-1.8c24.8-2.7 22.4-3.4 27 8.3z"/></svg>